<svg width="865" height="700" viewBox="0 0 865 700" fill="none" xmlns="http://www.w3.org/2000/svg">
<rect width="864" height="700" fill="#E7F7FE"/>
<mask id="mask0_946_11806" style="mask-type:luminance" maskUnits="userSpaceOnUse" x="0" y="223" width="865" height="416">
<path d="M864.6 223H0V638.385H864.6V223Z" fill="white"/>
</mask>
<g mask="url(#mask0_946_11806)">
<path d="M71.662 252.409C76.4838 258.889 82.0538 264.206 88.0395 268.609C94.0252 273.012 100.427 276.584 107.077 279.658C120.379 285.806 134.678 290.209 149.393 294.197C156.709 296.19 164.939 298.101 173.419 301.341C177.659 302.92 181.898 304.914 186.055 307.323C190.212 309.732 193.953 312.557 197.445 315.63C200.936 318.704 204.012 322.027 206.839 325.434C209.665 328.84 212.243 332.412 214.57 336.067C219.226 343.378 223.05 350.938 226.625 358.581C219.725 353.68 212.991 348.695 206.257 344.043C202.932 341.717 199.606 339.557 196.281 337.563C194.618 336.566 192.955 335.652 191.376 334.655C189.713 333.824 188.05 332.91 186.471 332.08C183.146 330.501 179.986 329.089 176.661 328.009C173.419 326.929 170.093 326.015 166.519 325.184C159.452 323.523 151.721 322.277 143.49 320.117C135.177 317.957 126.947 315.049 119.049 311.227C111.151 307.406 103.586 302.67 96.7687 296.938C89.9516 291.206 83.8828 284.394 79.4766 276.75C75.1536 269.19 72.3271 260.717 71.662 252.409Z" fill="#D4F7F7"/>
<path d="M647.452 319.618C661.752 320.781 675.635 322.609 688.022 322.526C691.181 322.526 694.091 322.443 697.001 322.194C699.91 321.944 702.737 321.612 705.48 321.114C710.967 320.2 715.872 318.704 720.029 316.711C721.11 316.212 722.107 315.714 723.022 315.132C724.019 314.634 724.934 313.969 725.931 313.304C727.844 311.975 729.839 310.314 731.834 308.486C733.829 306.658 735.908 304.581 738.069 302.421C740.231 300.261 742.475 298.184 744.637 296.024C753.449 287.468 762.76 278.911 772.404 270.188C770.658 281.735 767.166 292.951 761.929 303.584C760.599 306.243 759.185 308.901 757.689 311.477C756.192 314.052 754.53 316.627 752.535 319.286C750.539 321.944 748.212 324.603 745.219 327.261C742.309 329.837 738.651 332.329 734.744 334.24C726.929 338.144 718.2 340.055 709.72 340.554C701.324 341.052 693.01 340.138 685.445 338.311C677.88 336.4 671.063 333.658 664.911 330.501C658.676 327.178 653.022 323.523 647.452 319.618Z" fill="white"/>
<path d="M677.797 561.206C684.53 561.704 690.599 560.126 696.169 557.966C701.822 555.723 707.06 552.732 712.214 549.409C717.535 546.086 722.939 542.431 729.174 538.941C732.25 537.197 735.575 535.535 739.067 533.957C742.558 532.461 746.299 531.132 750.29 530.135C758.188 528.141 766.335 527.643 774.316 528.474C782.297 529.304 790.028 531.464 797.095 534.704C804.161 537.944 810.729 542.431 816.216 547.664C821.703 552.981 826.192 559.129 829.268 565.775C822.866 562.037 816.465 559.378 810.147 557.467C803.829 555.557 797.594 554.311 791.608 553.646C779.47 552.317 768.081 553.147 757.439 555.723C752.202 556.969 746.632 558.963 740.563 561.206C734.494 563.449 727.844 565.858 720.611 567.686C713.378 569.514 705.563 570.427 697.915 569.597C694.091 569.181 690.35 568.351 686.858 566.938C683.533 565.443 680.374 563.532 677.797 561.206Z" fill="#D4F7F7"/>
<path d="M251.399 562.286C242.005 569.929 229.95 574.914 217.231 576.326C210.913 577.074 204.345 576.908 197.944 575.911C191.542 574.914 184.975 572.92 179.488 570.511C168.264 565.692 159.535 560.126 150.972 557.135L149.393 556.637C148.811 556.471 148.312 556.388 147.73 556.221C146.649 555.889 145.569 555.723 144.405 555.474C142.16 555.058 139.832 554.975 137.338 555.141C132.35 555.474 127.03 556.886 121.958 559.877C123.704 554.145 127.612 548.578 133.015 544.508C135.759 542.431 138.835 540.852 142.243 539.606C143.075 539.357 143.906 539.108 144.821 538.858L146.151 538.526C146.566 538.443 146.982 538.36 147.481 538.277C148.395 538.111 149.227 537.945 150.141 537.778C151.056 537.695 151.887 537.612 152.801 537.529C153.217 537.529 153.716 537.446 154.132 537.446H155.462C156.293 537.446 157.208 537.446 158.122 537.446C159.785 537.529 161.614 537.612 163.276 537.945C166.685 538.36 169.844 539.108 172.92 539.938C178.989 541.6 184.476 543.843 189.381 545.92C191.792 546.917 194.119 547.914 196.53 548.911C198.775 549.824 201.02 550.738 203.43 551.569C208.086 553.314 212.908 554.892 217.979 556.388C227.789 559.129 238.846 561.372 251.399 562.286Z" fill="white"/>
<path d="M-58.6099 352.766C-45.4746 334.655 -31.508 316.877 -19.2872 298.101C-16.3775 303.252 -12.5533 307.738 -8.7291 312.224C2.74348 325.683 13.8004 339.391 24.4416 353.514C33.5864 365.643 42.6481 379.018 60.0232 376.858C75.1537 374.366 93.2771 368.052 110.237 368.8C162.029 369.464 178.324 422.135 214.072 420.64C248.739 418.064 283.24 407.431 310.425 437.089C322.895 449.052 331.291 464.754 346.089 472.978C357.313 478.544 371.279 478.544 382.419 485.191C416.255 504.547 423.987 547 423.903 582.806C419.331 550.572 409.022 511.775 376.35 497.818C364.296 493.166 351.077 495.326 338.774 490.591C320.235 484.027 307.681 467.994 293.05 456.695C270.354 437.421 242.919 455.781 217.563 458.606C163.609 468.575 138.502 416.569 108.158 422.966C91.6975 427.452 73.5742 437.255 54.952 438.501C1.5796 443.984 -36.8286 394.304 -58.6099 352.766Z" fill="white"/>
<path d="M-67.339 522.908L-56.9472 452.458C-30.3441 456.695 -12.2208 477.465 3.32539 495.658C16.045 510.778 40.8191 509.865 58.2774 502.055C74.0729 494.412 87.9564 482.366 104.833 476.468C126.531 468.575 150.889 469.738 171.507 479.874C182.979 485.108 192.789 494.994 203.015 500.477C233.442 514.018 266.197 495.575 297.456 493.415C347.752 488.265 399.711 519.668 417.086 567.105C392.562 522.077 338.358 500.56 293.133 515.514C250.401 530.717 211.245 550.905 168.015 522.742C150.141 511.36 128.776 513.354 113.479 527.394C104.334 534.871 95.6048 543.178 85.4624 549.659C51.7097 571.674 4.65554 576.409 -30.8429 554.809C-43.5625 547.831 -55.9496 533.209 -67.339 527.228C-67.7547 527.145 -68.3367 526.729 -68.6692 527.145C-68.2535 525.815 -67.6716 524.32 -67.339 522.908Z" fill="#D4F7F7"/>
<path d="M924.54 243.769L897.854 312.308C897.521 312.972 897.272 314.218 897.106 314.551C889.291 311.809 875.241 317.043 866.678 318.705C861.358 319.12 859.446 328.258 856.536 333.409C851.049 346.535 843.068 360.991 833.424 371.874C804.826 403.941 761.929 429.197 717.784 423.215C706.81 421.471 696.169 417.566 686.193 412.831C673.058 406.766 661.336 398.957 647.286 395.8C635.315 393.391 621.681 395.052 612.286 403.36C595.327 421.305 596.241 455.283 572.548 469.988C543.202 490.674 505.791 463.923 476.112 480.954C448.096 496.24 437.122 528.972 431.302 558.631C433.547 506.375 459.734 454.12 519.674 459.271C533.807 459.105 547.857 460.849 558.914 451.711C577.12 432.686 567.893 397.378 595.743 374.615C613.118 359.994 637.31 355.092 659.424 358.748C676.134 361.406 691.763 368.966 707.642 373.785C732.665 382.674 757.356 366.889 774.565 349.609C799.09 328.009 795.183 291.206 819.458 268.775C829.933 258.225 844.648 252.243 858.199 247.674C878.4 240.197 903.008 235.794 924.54 243.769Z" fill="white"/>
<path d="M880.312 436.674L937.176 487.517C906.915 519.668 863.104 537.031 821.952 512.357C803.413 502.637 790.444 486.188 772.237 477.464C756.276 471.649 737.155 476.8 723.188 486.021C706.395 497.901 694.673 516.428 675.219 526.148C629.578 548.994 596.74 509.698 554.258 509.698C533.558 509.781 513.606 516.095 494.069 522.575C473.784 529.554 451.587 536.615 439.782 555.723C448.844 534.621 471.124 523.572 490.411 513.769C510.114 503.8 530.731 494.246 552.845 491.006C559.496 490.009 566.646 489.594 573.379 490.009C595.327 490.84 616.027 501.308 637.559 501.391C675.801 502.471 674.721 444.732 740.729 426.621C768.829 417.4 801.251 425.043 825.277 441.077C835.669 446.975 846.892 455.532 858.697 456.363C867.343 454.785 874.16 443.985 880.312 436.674Z" fill="#D4F7F7"/>
</g>
<path d="M212.848 511.4C241.973 511.4 265.584 487.805 265.584 458.7C265.584 429.595 241.973 406 212.848 406C183.722 406 160.111 429.595 160.111 458.7C160.111 487.805 183.722 511.4 212.848 511.4Z" fill="white"/>
<path d="M204.142 510.7C219.852 512.8 230.46 511.5 237.665 498L237.064 498.4L238.265 498C244.97 496.1 252.775 490.2 256.178 486.6L256.278 486.5C256.578 486.6 256.978 486.8 257.479 487C263.583 477.5 266.585 465.2 265.384 453.8C262.882 455.5 261.782 457.3 259.28 461.2C256.378 456.1 250.674 452.5 245.47 450.3L237.965 427.5C240.267 426 242.268 424 243.769 421.7C245.07 421.8 248.172 422.2 251.775 423.2C248.372 419.5 244.47 416.2 239.966 413.6C241.267 416.6 242.368 419.7 242.768 421C241.167 423.2 239.466 425.3 237.064 426.6L212.547 424.3C209.745 421 202.14 416.4 199.038 415.8C201.44 412.2 203.341 409.4 204.942 406.8C194.235 408.4 184.428 413.3 176.622 420.7C176.823 421.4 177.023 421.9 177.123 422.2L177.023 422.3C173.42 426.2 170.318 435.7 168.517 444.9L168.617 445C156.809 453.7 159.41 467.5 164.514 479.7C169.518 480.5 174.721 480.5 178.624 480C178.624 480.1 178.724 480.2 178.724 480.3C182.627 487.2 197.637 496.9 197.837 496.5L198.037 496.6H198.237C199.638 503.3 202.14 507.9 204.142 510.7ZM245.07 451.5C250.173 453.7 255.377 456.9 258.179 461.9C258.179 468.8 255.777 482.7 255.077 485.8C250.474 490.4 244.47 494.6 238.165 496.7C236.564 495.3 228.859 488.9 221.253 486.4C223.055 479.1 223.955 470.8 224.756 463.5L244.97 451.5C244.97 451.4 245.07 451.4 245.07 451.5ZM169.918 444.4C171.519 437 173.32 429.2 177.823 423.1C179.124 422.6 190.232 418.2 198.538 416.8C200.439 417.4 202.34 418.2 204.142 419.3C206.843 420.8 209.245 422.7 211.447 424.9L203.041 445.9C196.736 447.5 188.13 450.4 182.426 454.5C180.225 453.1 172.72 448.1 169.918 444.4ZM197.737 494.9C191.032 490.9 184.428 486 179.825 479.6C179.124 466.9 183.227 456 183.427 455.4C189.131 451.4 197.137 448.8 203.441 447.2L223.455 463.3C222.654 470.8 221.754 478.9 219.952 486.3C216.25 488.1 205.042 493.3 198.137 495.1C198.037 495.1 197.937 495 197.737 494.9Z" fill="#373F5B"/>
<path opacity="0.24" d="M264.183 470.7C257.579 499 229.259 516.6 200.839 510C188.03 507 177.423 499.6 170.218 489.7C174.521 492.2 179.324 494.1 184.428 495.3C212.748 501.9 241.067 484.3 247.772 456C251.374 440.5 247.772 425 239.066 413C258.78 424.3 269.587 447.5 264.183 470.7Z" fill="#173E6D"/>
<path d="M403.25 389.705C378.68 391.07 353.985 382.265 335.867 365.648L332.641 362.672C322.589 353.495 327.925 338.366 341.575 337.622C366.146 336.258 390.841 345.062 408.959 361.68L412.185 364.656C422.237 373.832 416.777 388.961 403.25 389.705Z" fill="#09556D"/>
<path d="M342.965 306.133L327.93 347.515L416.699 379.723L431.735 338.342L342.965 306.133Z" fill="#09556D"/>
<path opacity="0.6" d="M431.792 338.366L424.347 358.703C420.376 361.059 416.032 362.919 411.317 364.036C399.528 366.888 386.001 365.896 374.088 361.307C361.182 356.347 350.138 347.914 341.203 337.746C338.845 335.018 336.612 332.289 334.502 329.313L342.94 306.248L431.792 338.366Z" fill="#173E6D"/>
<path d="M460.086 348.41L388.483 352.379C382.651 352.751 376.694 350.643 372.351 346.674L315.391 294.591C313.158 292.483 314.275 289.134 317.377 289.01L388.98 285.042C394.812 284.67 400.769 286.778 405.112 290.747L462.071 342.83C464.429 344.814 463.188 348.162 460.086 348.41Z" fill="#09556D"/>
<path d="M388.731 314.556L458.348 347.418L458.969 384.869" stroke="#FFBB4D" stroke-width="3" stroke-miterlimit="10"/>
<path d="M455.37 396.154C456.859 397.642 458.597 397.89 460.83 398.634C462.444 396.526 463.933 394.17 464.677 391.814C465.422 389.333 465.174 386.605 463.685 384.621C463.064 383.877 462.195 383.133 461.327 382.761C460.458 382.265 459.465 382.017 458.473 382.017C455.618 384.001 453.136 386.977 452.888 390.201C452.888 390.449 452.888 390.697 452.888 390.945C452.888 392.682 453.881 394.666 455.37 396.154Z" fill="#FFBB59"/>
<path opacity="0.25" d="M455.37 396.154C456.859 397.642 458.597 397.89 460.83 398.634C462.444 396.526 463.933 394.17 464.677 391.814C465.422 389.333 465.174 386.605 463.685 384.621C463.064 383.877 462.195 383.133 461.327 382.761C461.699 384.869 461.823 386.853 461.699 388.961C461.575 390.077 461.327 391.194 460.706 392.062C458.597 395.286 454.874 393.798 453.385 391.318C453.137 390.946 453.012 390.45 452.764 390.077C452.764 390.326 452.764 390.574 452.764 390.822C452.888 392.682 453.881 394.666 455.37 396.154Z" fill="#6B2618"/>
<path d="M129.19 538.531C129.19 542.031 127.889 545.331 125.988 548.231C122.285 553.831 116.281 557.731 109.676 558.831C103.572 559.931 97.0674 558.531 91.8638 555.131C91.4636 554.931 91.1633 554.631 90.7631 554.331C93.0647 552.531 95.3663 550.731 97.7679 548.931C103.372 551.431 110.076 551.131 115.38 548.031C118.382 546.231 121.084 542.931 120.183 539.631C119.483 537.031 116.781 535.331 114.079 535.031C111.377 534.731 107.275 535.931 104.673 536.631C105.673 534.331 107.074 531.531 107.975 529.231C113.279 527.631 119.383 526.131 124.086 528.931C124.386 529.131 124.587 529.231 124.887 529.431C127.689 531.531 129.19 535.031 129.19 538.531Z" fill="#FFBB59"/>
<path d="M129.19 538.531C129.19 542.031 127.889 545.331 125.987 548.231C122.285 553.831 116.281 557.731 109.676 558.831C103.572 559.931 97.0674 558.531 91.8638 555.131C92.3641 554.231 92.9645 553.431 93.7651 552.631C99.6692 554.531 106.274 554.931 112.178 553.031C118.082 551.031 123.286 546.431 125.087 540.431C126.188 536.631 125.887 532.431 124.086 528.931C124.386 529.131 124.586 529.231 124.887 529.431C127.689 531.531 129.19 535.031 129.19 538.531Z" fill="#E6A530"/>
<path d="M69.7485 510.631C69.4483 511.231 69.048 511.931 68.6477 512.631C67.7471 514.331 66.8465 516.231 65.9458 517.731C64.9451 515.231 63.344 511.231 61.4427 509.331C59.5414 507.431 56.5393 506.231 54.0376 507.331C50.8354 508.731 49.9347 512.931 50.335 516.331C51.1356 522.331 55.0383 527.931 60.5421 530.731C60.5421 532.731 60.5421 534.731 60.5421 536.731C60.5421 537.631 60.5421 538.631 60.5421 539.531C54.1376 537.831 48.4337 533.331 45.3315 527.431C42.2294 521.531 41.5289 514.431 43.6303 508.031C44.7311 504.731 46.5324 501.631 49.2342 499.531C51.9361 497.431 55.6387 496.431 58.941 497.331C64.745 499.031 67.647 505.231 69.7485 510.631Z" fill="#FFBB59"/>
<path d="M68.6476 512.731C67.747 514.431 66.8464 516.331 65.9458 517.831C64.9451 515.331 63.344 511.331 61.4426 509.431C59.5413 507.531 56.5392 506.331 54.0375 507.431C50.8353 508.831 49.9347 513.031 50.3349 516.431C51.1355 522.431 55.0382 528.031 60.542 530.831C60.542 532.831 60.542 534.831 60.542 536.831C54.5379 532.431 49.7345 526.331 47.1327 519.331C45.9319 516.231 45.1313 512.631 46.4322 509.531C48.0333 505.931 52.2363 503.931 56.239 504.331C61.943 505.031 66.0458 508.231 68.6476 512.731Z" fill="#E6A530"/>
<path d="M80.9562 542.931L56.139 593.931C66.1459 599.631 71.7498 608.331 68.9479 614.031L64.3447 611.831L27.0188 593.731C29.8207 587.931 40.1279 587.031 50.8353 591.331L76.0528 539.531L79.155 541.031L80.656 541.731L81.4566 542.131L80.9562 542.931Z" fill="#FFBB59"/>
<path d="M68.9479 614.131L64.3448 611.931C63.6443 604.131 59.5414 595.931 52.3364 595.931L79.055 541.131L79.7554 539.631C80.0557 540.331 80.2558 541.131 80.4559 541.831C80.556 542.231 80.6561 542.631 80.8562 543.031L56.039 594.031C66.146 599.631 71.85 608.331 68.9479 614.131Z" fill="#E6A530"/>
<path d="M116.181 523.831C101.17 556.431 88.7617 566.331 71.3496 558.631C70.9493 558.431 70.6491 558.331 70.3489 558.131C70.0487 557.931 69.6484 557.831 69.3482 557.631C63.9444 554.831 60.3419 551.231 58.3405 546.731C54.1376 537.031 57.7401 522.731 68.9479 500.931L91.5636 511.931L93.565 512.931L105.874 518.931L116.181 523.831Z" fill="#FFBB59"/>
<path d="M116.181 523.831C101.17 556.431 88.7617 566.331 71.3496 558.631C70.9493 558.431 70.6491 558.331 70.3489 558.131C70.0487 557.931 69.6484 557.831 69.3482 557.631C63.9445 554.831 60.342 551.231 58.3406 546.731C63.344 551.331 71.1495 553.131 77.8541 551.531C86.4601 549.531 93.565 543.131 98.2683 535.631C101.571 530.431 103.872 524.731 105.874 518.831L116.181 523.831Z" fill="#E6A530"/>
<path d="M75.7526 510.031C69.148 519.531 64.5448 530.631 61.7429 541.831C59.8416 529.831 63.1438 517.131 70.6491 507.531C72.5504 508.131 74.0514 508.831 75.7526 510.031Z" fill="#F8F185"/>
<path d="M755.865 320.22C745.545 314.935 733.87 312.228 722.26 311.454C699.878 309.843 678.786 322.283 681.753 347.163C683.43 361.473 693.363 375.073 705.296 382.872C707.231 384.097 711.359 385.773 715.939 386.933C720.583 388.093 727.549 389.576 732 386.997C736.192 384.548 737.031 378.682 732.774 375.782C715.939 364.18 739.933 360.119 749.157 359.926C754.898 359.797 760.832 359.41 766.056 357.025C771.281 354.64 775.796 349.741 776.119 344.005C776.764 333.047 764.379 324.603 755.865 320.22ZM744.448 353.48C741.61 353.931 738.708 354.382 735.87 354.833C732.451 355.349 728.323 355.671 726.194 353.415C724.84 351.997 724.904 349.87 725.807 348.259C728.581 343.102 740.965 340.653 747.286 341.491C750.641 341.942 752.898 343.425 753.479 346.325C754.382 351.095 749.222 352.706 744.448 353.48Z" fill="#E5843C"/>
<path d="M755.865 316.933C745.545 311.647 733.87 308.94 722.26 308.167C699.878 306.555 678.786 318.995 681.753 343.876C683.43 358.185 693.363 371.786 705.296 379.585C707.231 380.81 711.359 382.485 715.939 383.646C720.583 384.806 727.549 386.288 732 383.71C736.192 381.261 737.031 375.395 732.774 372.495C715.939 360.892 739.933 356.832 749.157 356.638C754.898 356.509 760.832 356.123 766.056 353.738C771.281 351.353 775.796 346.454 776.119 340.717C776.764 329.695 764.379 321.251 755.865 316.933ZM744.448 350.128C741.61 350.579 738.708 351.03 735.87 351.482C732.451 351.997 728.323 352.32 726.194 350.064C724.84 348.646 724.904 346.519 725.807 344.907C728.581 339.751 740.965 337.301 747.286 338.139C750.641 338.59 752.898 340.073 753.479 342.973C754.382 347.808 749.222 349.355 744.448 350.128Z" fill="#E6A530"/>
<path d="M695.621 361.215C699.168 368.627 710.65 375.137 714.907 363.793C718.003 355.542 709.166 349.355 701.555 350.579C694.202 351.804 693.428 356.638 695.621 361.215Z" fill="#CF422F"/>
<path d="M690.396 336.27C693.944 343.682 705.425 350.192 709.682 338.848C712.778 330.598 703.941 324.41 696.33 325.634C689.042 326.795 688.203 331.693 690.396 336.27Z" fill="#F8F185"/>
<path d="M711.424 321.832C714.971 329.244 726.453 335.754 730.71 324.41C733.806 316.159 724.969 309.971 717.358 311.196C710.069 312.356 709.231 317.255 711.424 321.832Z" fill="#4CA956"/>
<path d="M740.256 324.99C743.352 331.371 753.156 336.979 756.897 327.181C759.606 320.091 751.931 314.741 745.416 315.773C739.03 316.868 738.385 321.058 740.256 324.99Z" fill="#45529F"/>
<path d="M747.416 359.41C749.093 360.183 749.802 362.246 749.351 364.051C748.899 365.791 747.545 367.209 745.996 368.176C744.448 369.143 742.771 369.787 741.159 370.625C739.546 371.463 737.998 372.494 737.031 374.106C737.16 373.913 736.579 372.301 736.515 371.914C736.128 368.885 737.16 365.662 739.095 363.148C740.901 360.828 744.319 357.992 747.416 359.41Z" fill="#45529F"/>
<path d="M762.831 340.459C758.832 344.843 755.091 349.612 751.092 353.802C751.479 354.576 752.189 355.091 752.834 355.671C753.414 356.316 753.93 356.96 754.704 357.412C758.961 353.351 763.734 349.677 768.056 345.68C772.829 341.297 777.473 336.721 781.988 332.08C786.374 327.568 790.632 322.863 794.695 318.157C796.437 316.159 811.207 300.561 805.08 302.108C802.306 302.752 799.662 305.459 797.211 307.651C793.857 310.616 790.567 313.645 787.277 316.675C778.892 324.281 770.507 332.08 762.831 340.459Z" fill="#45529F"/>
<path d="M745.868 356.251L744.126 357.992C743.868 358.25 743.868 358.636 744.061 358.83L749.738 364.502C749.931 364.695 750.318 364.695 750.576 364.437L752.318 362.697C752.576 362.439 752.576 362.053 752.382 361.859C752.189 361.666 752.189 361.279 752.447 361.021L758.058 355.413C758.316 355.156 758.703 355.156 758.897 355.349C759.09 355.542 759.477 355.542 759.735 355.285L761.477 353.544C761.735 353.286 761.735 352.9 761.541 352.706L755.865 347.034C755.672 346.841 755.285 346.841 755.027 347.099L753.285 348.839C753.027 349.097 753.027 349.483 753.221 349.677C753.414 349.87 753.414 350.257 753.156 350.515L747.545 356.122C747.287 356.38 746.9 356.38 746.706 356.187C746.448 355.929 746.126 355.994 745.868 356.251Z" fill="#93CCDA"/>
<path d="M628.457 485.478C632.469 478.034 636.766 470.017 632.755 461.427L612.269 413.468C609.117 403.447 602.671 393.855 590.064 395.43L587.342 388.988C585.909 384.979 578.316 384.979 576.884 389.274C575.451 392.996 572.443 396.432 572.156 400.298L554.535 405.451L551.957 399.295C550.524 395.287 542.931 395.287 541.499 399.582C540.066 403.304 537.058 406.74 536.771 410.605C534.192 411.321 521.586 415.043 519.15 415.759L516.571 409.603C513.133 403.447 505.684 407.456 504.394 413.182C502.389 416.904 499.81 420.483 502.675 424.492C493.507 439.953 495.082 442.1 502.389 457.705L521.156 501.655C526.313 513.824 542.645 520.266 557.401 515.971C571.44 509.243 623.73 504.089 628.457 485.478Z" fill="#F39574"/>
<path d="M615.277 491.204L561.842 506.666C547.086 510.961 530.897 504.518 525.597 492.35L505.111 444.391C499.953 432.222 507.689 418.908 522.445 414.614L575.881 399.152C590.637 394.857 606.825 401.3 612.126 413.468L632.612 461.427C637.913 473.452 630.176 486.91 615.277 491.204Z" fill="white"/>
<path d="M613.988 417.477L506.973 448.542L501.672 436.087C498.521 428.5 503.248 420.34 512.417 417.62L586.339 396.146C595.508 393.426 605.536 397.434 608.688 405.022L613.988 417.477Z" fill="#D56632"/>
<path d="M518.147 427.211C515.282 428.07 512.13 426.782 511.128 424.491L505.97 412.609C504.967 410.319 506.4 407.598 509.265 406.883C512.13 406.024 515.282 407.312 516.285 409.603L521.442 421.485C522.445 423.776 521.012 426.352 518.147 427.211Z" fill="#254F2F"/>
<path d="M553.532 416.904C550.667 417.763 547.516 416.474 546.513 414.184L541.355 402.301C540.353 400.011 541.785 397.291 544.65 396.575C547.516 395.716 550.667 397.005 551.67 399.295L556.827 411.177C557.973 413.468 556.398 416.045 553.532 416.904Z" fill="#254F2F"/>
<path d="M588.918 406.596C586.052 407.455 582.901 406.167 581.898 403.876L576.741 391.994C575.738 389.704 577.17 386.983 580.036 386.268C582.901 385.409 586.052 386.697 587.055 388.988L592.213 400.87C593.359 403.304 591.783 405.881 588.918 406.596Z" fill="#254F2F"/>
<path d="M543.648 470.446L535.195 476.172L530.468 465.292L549.521 450.26L554.535 448.829L569.864 484.619L551.957 489.773L543.648 470.446Z" fill="#313131"/>
<path d="M597.943 477.318C594.648 478.32 591.353 478.606 588.201 478.463C585.05 478.32 582.184 477.604 579.463 476.602C573.732 474.168 569.721 470.303 567.429 464.719C564.993 459.136 565.137 454.126 567.715 449.544C570.294 444.963 575.022 441.671 581.755 439.666C588.488 437.662 594.648 437.805 600.235 440.096C605.822 442.386 609.69 446.252 612.126 451.978C613.272 454.698 613.845 457.418 613.702 459.995C613.558 462.572 612.985 465.006 611.696 467.296C610.407 469.587 608.688 471.591 606.395 473.309C604.103 475.027 601.238 476.315 597.943 477.318ZM593.216 466.294C596.51 465.292 597.083 462.429 594.935 457.705C593.932 455.414 593.072 453.839 592.356 452.98C591.64 452.121 590.923 451.549 590.494 451.119C589.347 450.26 587.915 450.117 586.482 450.547C583.331 451.406 582.758 454.269 584.62 458.85C584.906 459.423 585.05 459.995 585.336 460.568C587.342 465.292 589.921 467.153 593.216 466.294Z" fill="#313131"/>
<path d="M864.525 575.811C864.683 572.69 862.867 569.568 859.315 567.648L817.402 544.919C811.877 541.878 804.142 542.918 800.274 547.24L762.781 588.296C759.703 591.497 760.729 595.418 760.571 599.26C760.255 603.021 761.676 606.463 765.78 608.703L807.694 631.432C813.219 634.473 820.954 633.433 824.822 629.111L862.315 588.055C865.63 584.534 864.288 580.052 864.525 575.811Z" fill="#E6A530"/>
<path d="M739.804 589.116L697.703 566.578C692.163 563.573 690.818 557.721 694.695 553.529L732.286 512.96C736.243 508.768 743.919 507.74 749.459 510.666L791.481 533.126C797.02 536.131 798.366 541.983 794.488 546.175L756.898 586.744C753.02 591.093 745.343 592.042 739.804 589.116Z" fill="#FFBB4D"/>
<path d="M778.344 549.891L733.315 525.85C731.732 524.98 731.336 523.32 732.444 522.133L737.984 516.123C739.092 514.937 741.308 514.621 742.89 515.49L787.92 539.532C789.502 540.401 789.898 542.062 788.79 543.248L783.25 549.259C782.142 550.445 779.927 550.682 778.344 549.891Z" fill="#09556D"/>
<path d="M723.343 547.756L718.912 545.384C715.984 543.802 715.271 540.718 717.329 538.503L721.444 534.075C723.502 531.86 727.617 531.307 730.545 532.889L734.977 535.261C737.905 536.843 738.617 539.927 736.559 542.141L732.444 546.57C730.307 548.784 726.271 549.338 723.343 547.756Z" fill="white"/>
<path d="M741.149 557.246L736.718 554.874C733.789 553.292 733.077 550.208 735.135 547.993L739.25 543.565C741.308 541.35 745.423 540.797 748.351 542.379L752.782 544.751C755.711 546.333 756.423 549.417 754.365 551.631L750.25 556.06C748.192 558.353 744.077 558.828 741.149 557.246Z" fill="white"/>
<path d="M744.948 581.92L740.516 579.547C737.588 577.966 736.876 574.882 738.933 572.667L757.056 553.134C759.113 550.92 763.229 550.366 766.157 551.948L770.588 554.32C773.516 555.902 774.229 558.986 772.171 561.2L754.049 580.734C751.991 582.948 747.955 583.502 744.948 581.92Z" fill="#E63223"/>
<path d="M709.336 562.861L704.904 560.489C701.976 558.907 701.264 555.823 703.322 553.608L707.437 549.18C709.494 546.965 713.609 546.412 716.537 547.994L720.969 550.366C723.897 551.948 724.609 555.032 722.552 557.246L718.437 561.675C716.3 563.889 712.264 564.443 709.336 562.861Z" fill="white"/>
<path d="M727.142 572.351L722.71 569.979C719.782 568.397 719.07 565.313 721.127 563.098L725.243 558.67C727.3 556.455 731.415 555.902 734.343 557.484L738.775 559.856C741.703 561.438 742.415 564.522 740.358 566.736L736.243 571.165C734.185 573.379 730.07 573.933 727.142 572.351Z" fill="white"/>
<path d="M724.61 543.644L723.502 543.09C722.948 542.774 722.789 542.22 723.185 541.746L727.458 537.159C727.854 536.764 728.646 536.606 729.199 536.922L730.307 537.476C730.861 537.792 731.02 538.345 730.624 538.82L726.351 543.407C725.955 543.802 725.163 543.96 724.61 543.644Z" fill="#09556D"/>
<path d="M722.473 538.503L723.264 537.634C723.66 537.238 724.451 537.08 725.005 537.396L731.02 540.639C731.574 540.955 731.732 541.509 731.336 541.983L730.545 542.853C730.149 543.248 729.358 543.407 728.804 543.09L722.789 539.848C722.235 539.532 722.077 538.978 722.473 538.503Z" fill="#09556D"/>
<path d="M741.308 548.863L742.099 547.993C742.495 547.598 743.286 547.44 743.84 547.756L748.113 550.05C748.667 550.366 748.826 550.919 748.43 551.394L747.639 552.264C747.243 552.659 746.451 552.817 745.898 552.501L741.624 550.208C741.07 549.891 740.912 549.259 741.308 548.863Z" fill="#09556D"/>
<path d="M753.811 563.415L754.603 562.545C754.998 562.149 755.79 561.991 756.344 562.307L760.617 564.601C761.171 564.917 761.329 565.471 760.934 565.945L760.142 566.815C759.747 567.211 758.955 567.369 758.401 567.052L754.128 564.759C753.574 564.443 753.416 563.81 753.811 563.415Z" fill="white"/>
<path d="M750.725 566.815L751.516 565.945C751.912 565.55 752.703 565.391 753.257 565.708L757.531 568.001C758.085 568.318 758.243 568.871 757.847 569.346L757.056 570.216C756.66 570.611 755.869 570.769 755.315 570.453L751.041 568.159C750.408 567.843 750.25 567.21 750.725 566.815Z" fill="white"/>
<path d="M708.149 556.534L707.911 555.506C707.753 554.953 708.228 554.478 708.94 554.399L716.221 553.45C716.933 553.371 717.566 553.687 717.645 554.241L717.883 555.269C718.041 555.823 717.566 556.297 716.854 556.376L709.573 557.325C708.94 557.404 708.307 557.009 708.149 556.534Z" fill="#09556D"/>
<path d="M711.394 551.71L712.739 551.552C713.451 551.473 714.084 551.789 714.163 552.343L715.43 557.879C715.588 558.432 715.113 558.907 714.401 558.986L713.055 559.144C712.343 559.223 711.71 558.907 711.631 558.353L710.365 552.817C710.286 552.343 710.681 551.868 711.394 551.71Z" fill="#09556D"/>
<path d="M726.43 563.256L727.221 562.386C727.617 561.991 728.408 561.833 728.962 562.149L734.739 565.233C735.293 565.55 735.451 566.103 735.056 566.578L734.264 567.448C733.869 567.843 733.077 568.001 732.523 567.685L726.746 564.601C726.192 564.284 726.034 563.652 726.43 563.256Z" fill="#09556D"/>
<path d="M731.653 561.121C732.286 560.488 733.473 560.33 734.343 560.805L734.66 560.963C735.53 561.437 735.768 562.386 735.135 563.019C734.502 563.652 733.315 563.81 732.444 563.335L732.128 563.177C731.257 562.703 731.02 561.754 731.653 561.121Z" fill="#09556D"/>
<path d="M726.351 566.815C726.984 566.182 728.171 566.024 729.041 566.499L729.358 566.657C730.228 567.131 730.466 568.08 729.833 568.713C729.199 569.346 728.012 569.504 727.142 569.029L726.825 568.871C725.955 568.397 725.717 567.527 726.351 566.815Z" fill="#09556D"/>
<path d="M733.209 700H137.996C155.008 684.1 176.322 669.7 201.24 657.2C235.463 640.1 276.192 626.7 321.423 618.3C357.148 611.6 395.575 607.9 435.602 607.9C461.22 607.9 486.137 609.4 510.154 612.2C566.593 618.9 617.829 633 659.958 652.4C686.076 664.5 708.792 678.7 727.005 694.4C729.106 696.3 731.208 698.1 733.209 700Z" fill="#05D5D7"/>
<path d="M357.748 657.6C353.145 662.9 345.14 663.4 338.235 662.1C331.33 660.9 324.525 658.3 317.62 658.8C310.616 659.4 303.21 664.6 303.611 671.6C304.011 678.4 311.016 682.6 317.12 685.6C324.325 689.2 331.63 693.1 336.734 699.3C336.934 699.6 337.134 699.8 337.334 700.1H137.996C178.324 662.4 243.369 633.1 321.423 618.4C336.133 622 348.842 627.8 356.247 636.5C361.251 642.3 362.752 651.7 357.748 657.6Z" fill="#377149"/>
<path d="M727.005 694.5C713.395 696.2 698.185 693.6 684.975 697.9C683.174 698.5 681.473 699.2 679.872 700H575.199C574.899 697.4 574.599 694.8 574.098 692.2C572.297 683 566.994 673.2 557.787 671.6C548.781 670 540.575 676.9 535.372 684.4C531.869 689.5 528.967 695.2 525.265 700H494.343C493.042 689.4 505.151 677.4 500.247 667.2C493.242 652.8 466.624 665.7 456.817 653C451.113 645.6 456.117 634.1 464.322 629.7C476.03 623.4 489.44 628.6 500.447 620.7C503.95 618.2 507.152 615.3 510.254 612.3C601.718 623.1 679.372 653.3 727.005 694.5Z" fill="#377149"/>
<path d="M407.783 671.5C402.88 673.4 399.177 678.5 399.878 683.6C400.478 687.5 403.48 690.8 406.982 692.5C410.485 694.3 414.588 694.7 418.49 694.9C423.194 695.1 428.397 694.6 431.8 691.4C445.409 678.3 417.79 667.7 407.783 671.5Z" fill="#377149"/>
<path opacity="0.6" d="M660.058 652.5C560.589 688.5 449.612 684.6 342.938 679.9C295.305 677.8 244.77 674.6 201.34 657.2C235.563 640.1 276.292 626.7 321.523 618.3C357.248 611.6 395.675 607.9 435.702 607.9C461.32 607.9 486.237 609.4 510.254 612.2C566.693 618.9 617.929 633 660.058 652.5Z" fill="#7095A9"/>
<path d="M695.683 628.3C687.077 626.5 678.571 624.9 670.165 623.4C565.493 605.4 482.235 615.2 427.797 662.7C371.558 613.6 284.497 604.7 174.921 625.3C169.918 626.2 164.914 627.2 159.911 628.3C174.121 609.8 190.432 592.4 209.445 576.6C215.85 575.5 222.254 574.7 228.759 574C252.876 571.5 277.393 571.9 300.809 575.4C281.796 570.3 262.082 567.9 242.368 568.2C234.062 568.3 225.757 569 217.551 570.1C221.954 566.7 226.357 563.5 231.06 560.2C288.901 557.2 340.336 560.5 379.663 576.1C338.235 552.5 290.001 541.8 240.767 543.8C276.992 536 315.419 539.2 349.843 552.8C374.36 562.5 396.675 577.5 415.088 596.2C419.591 599.8 423.794 603.7 427.597 607.9C466.524 565.2 538.374 555.6 624.233 560.2C625.534 561.1 626.835 562 628.036 562.9C612.425 561.3 596.714 561 581.103 562.2C601.417 562.7 621.732 566.2 641.045 572.6C646.849 577.2 652.353 581.9 657.656 586.7C652.753 585.9 647.95 585.2 643.046 584.8C626.535 583.2 609.723 583.4 593.312 585.7C613.326 587.2 633.24 590.5 652.753 595.5C659.358 597.2 665.862 599.1 672.367 601.1C680.772 609.8 688.578 618.9 695.683 628.3Z" fill="white"/>
<path opacity="0.33" d="M670.165 623.4C565.493 605.4 482.235 615.2 427.797 662.7C371.558 613.6 284.497 604.7 174.921 625.3C192.934 607.7 207.744 585.7 228.759 574C252.876 571.5 277.393 571.9 300.809 575.4C281.796 570.3 262.082 567.9 242.368 568.2C252.675 565.2 263.683 564.9 274.39 565.3C329.429 567.5 383.566 588.9 425.195 625C469.726 591.6 523.964 571.3 579.402 567.2C594.313 566.1 609.723 566.2 623.433 572C630.838 575.1 637.242 579.5 642.946 584.8C626.435 583.2 609.623 583.4 593.212 585.7C613.226 587.2 633.139 590.5 652.653 595.5C659.558 604 665.162 613.7 670.165 623.4Z" fill="#7095A9"/>
<path d="M703.388 623.3C664.061 613.4 623.333 603.1 581.403 601.7C541.576 600.4 481.434 598.3 457.117 639.4C451.914 648.2 441.606 654.1 431.299 654.4C430.599 654.3 429.898 654.3 429.298 654.3C429.198 654.3 429.098 654.3 428.998 654.3C428.898 654.3 428.797 654.3 428.697 654.3C427.997 654.2 427.296 654.3 426.696 654.4C416.389 654.1 406.082 648.3 400.878 639.4C376.661 598.3 316.42 600.3 276.592 601.7C234.663 603.1 193.935 613.4 154.607 623.3C149.003 624.7 145.601 630.4 147.002 636.1C148.403 641.7 154.107 645.1 159.811 643.7C198.137 634 237.665 624 277.292 622.7C312.117 621.5 364.853 619.7 382.665 650.1C391.772 665.6 409.384 675.4 427.296 675.4C427.897 675.4 428.397 675.4 428.998 675.4C429.598 675.4 430.098 675.4 430.699 675.4C448.611 675.4 466.223 665.5 475.33 650.1C493.242 619.7 545.879 621.5 580.703 622.7C620.33 624 659.958 634 698.185 643.7C703.788 645.1 709.492 641.7 710.993 636.1C712.394 630.4 708.992 624.7 703.388 623.3Z" fill="#ABB12B"/>
<path opacity="0.6" d="M710.993 636.1C709.592 641.7 703.888 645.1 698.185 643.7C659.858 634 620.33 624 580.703 622.7C545.879 621.5 493.142 619.7 475.23 650.1C466.123 665.6 448.511 675.4 430.599 675.4C429.998 675.4 429.498 675.4 428.898 675.4C428.297 675.4 427.797 675.4 427.196 675.4C409.284 675.4 391.672 665.5 382.565 650.1C364.653 619.7 312.017 621.5 277.192 622.7C237.565 624 197.937 634 159.611 643.7C154.007 645.1 148.303 641.7 146.802 636.1C146.001 633 146.702 629.8 148.503 627.3C150.905 630.6 155.308 632.4 159.511 631.3C197.837 621.6 237.365 611.6 277.092 610.3C311.916 609.1 364.653 607.3 382.465 637.7C391.572 653.2 409.184 663 427.096 663C427.697 663 428.197 663 428.798 663C429.398 663 429.898 663 430.499 663C448.411 663 466.023 653.1 475.13 637.7C493.042 607.4 545.679 609.1 580.603 610.3C620.23 611.7 659.858 621.7 698.084 631.3C702.387 632.4 706.69 630.7 709.092 627.3C710.993 629.7 711.794 632.9 710.993 636.1Z" fill="#7095A9"/>
<path opacity="0.33" d="M285.198 581.8C285.198 581.8 286.699 581.7 289.401 581.5C290.101 581.5 290.802 581.4 291.703 581.3C292.503 581.3 293.404 581.2 294.404 581.2C296.306 581.2 298.607 581 301.009 581.1C302.21 581.1 303.511 581.1 304.912 581.2C306.213 581.2 307.614 581.3 309.115 581.4C312.017 581.5 315.119 581.8 318.321 582.2C324.825 583 331.83 584.2 339.135 586C346.44 587.8 353.245 590.1 359.349 592.5C362.352 593.7 365.254 594.9 367.855 596.1C369.156 596.7 370.457 597.3 371.658 597.9C372.859 598.5 373.96 599.1 375.06 599.7C377.262 600.8 379.163 601.9 380.864 602.9C381.665 603.4 382.466 603.8 383.266 604.3C383.967 604.7 384.667 605.1 385.167 605.5C387.469 607 388.77 607.8 388.77 607.8C388.77 607.8 387.369 607.2 384.867 606C384.267 605.7 383.566 605.4 382.766 605C381.965 604.7 381.165 604.3 380.264 603.9C378.463 603.1 376.461 602.2 374.26 601.3C373.159 600.8 371.958 600.4 370.757 599.9C369.557 599.4 368.256 598.9 366.855 598.4C364.153 597.4 361.251 596.4 358.249 595.3C352.144 593.3 345.44 591.3 338.235 589.5C331.03 587.7 324.125 586.4 317.821 585.3C314.618 584.8 311.616 584.3 308.814 584C307.413 583.8 306.012 583.6 304.712 583.5C303.411 583.4 302.11 583.2 300.909 583.1C298.507 582.8 296.306 582.7 294.304 582.5C293.304 582.4 292.403 582.4 291.602 582.3C290.802 582.3 290.001 582.2 289.301 582.2C286.699 581.9 285.198 581.8 285.198 581.8Z" fill="#7095A9"/>
<path opacity="0.33" d="M206.043 604.6C206.043 604.6 207.844 603.9 211.147 602.7C211.947 602.4 212.848 602.1 213.848 601.7C214.849 601.4 215.95 601 217.151 600.6C219.552 599.9 222.254 598.9 225.256 598.1C226.757 597.7 228.359 597.2 230.06 596.8C231.761 596.4 233.462 596 235.263 595.6C238.866 594.7 242.769 594 246.871 593.2C255.077 591.8 264.183 590.7 273.79 590.3C283.397 589.9 292.603 590.2 300.909 590.8C305.012 591.2 309.014 591.6 312.617 592.1C314.418 592.4 316.219 592.6 317.921 592.9C319.622 593.2 321.223 593.5 322.824 593.8C325.926 594.3 328.728 595 331.13 595.5C332.331 595.8 333.431 596 334.532 596.3C335.533 596.6 336.534 596.8 337.334 597.1C340.736 598 342.638 598.5 342.638 598.5C342.638 598.5 340.736 598.2 337.234 597.6C336.333 597.5 335.433 597.3 334.332 597.1C333.231 597 332.131 596.8 330.93 596.6C328.428 596.3 325.726 595.8 322.524 595.5C320.923 595.3 319.322 595.1 317.62 595C315.919 594.8 314.118 594.7 312.317 594.5C308.714 594.1 304.711 594 300.609 593.8C292.403 593.5 283.297 593.4 273.79 593.8C264.283 594.3 255.277 595.1 247.172 596.2C243.069 596.8 239.166 597.3 235.564 598C233.762 598.3 231.961 598.6 230.36 598.9C228.659 599.2 227.058 599.6 225.557 599.9C222.454 600.5 219.753 601.2 217.351 601.7C216.15 602 215.049 602.2 213.949 602.5C212.948 602.8 211.947 603 211.147 603.2C207.944 604.1 206.043 604.6 206.043 604.6Z" fill="#7095A9"/>
<path opacity="0.33" d="M556.286 579.1C556.286 579.1 554.585 579.2 551.583 579.4C550.782 579.4 549.982 579.5 549.081 579.5C548.18 579.6 547.18 579.7 546.079 579.8C543.978 580 541.476 580.2 538.774 580.6C537.473 580.8 536.072 581 534.571 581.2C533.07 581.4 531.569 581.7 530.068 582C526.966 582.5 523.663 583.3 520.161 584.1C513.256 585.8 505.651 588 497.946 590.7C490.14 593.4 482.935 596.4 476.331 599.3C473.028 600.8 469.926 602.2 467.124 603.6C464.222 605 461.62 606.3 459.219 607.5C456.817 608.7 454.616 609.9 452.714 610.9C450.813 611.9 449.212 612.8 447.811 613.5C445.109 615 443.708 615.8 443.708 615.8C443.708 615.8 445.109 614.8 447.611 613.1C448.812 612.2 450.413 611.1 452.214 610C454.015 608.8 456.117 607.4 458.418 606C460.72 604.6 463.322 603 466.124 601.5C468.925 599.9 471.928 598.3 475.23 596.7C481.734 593.5 489.039 590.2 496.945 587.5C504.85 584.8 512.656 582.7 519.761 581.3C523.363 580.7 526.766 580.1 529.968 579.7C531.569 579.5 533.07 579.3 534.571 579.2C536.072 579.1 537.473 579 538.874 578.9C541.576 578.7 544.078 578.7 546.279 578.7C547.38 578.7 548.381 578.7 549.281 578.7C550.182 578.7 551.082 578.8 551.783 578.8C554.585 579 556.286 579.1 556.286 579.1Z" fill="#7095A9"/>
<path opacity="0.33" d="M616.928 592.9C616.928 592.9 615.027 592.7 611.624 592.2C608.222 591.8 603.319 591.1 597.214 590.4C585.006 589 568.194 587.2 549.581 587.7C540.275 588 531.469 588.9 523.563 590.3C515.658 591.7 508.653 593.6 502.849 595.6C497.045 597.6 492.542 599.6 489.44 601.1C487.839 601.8 486.738 602.5 485.937 602.9C485.137 603.3 484.736 603.5 484.736 603.5C484.736 603.5 485.137 603.2 485.937 602.7C486.738 602.2 487.839 601.4 489.24 600.6C492.142 598.8 496.545 596.4 502.249 594C507.952 591.6 514.957 589.2 522.963 587.5C530.968 585.7 539.975 584.6 549.381 584.3C558.888 584 567.794 584.6 576 585.5C584.105 586.4 591.31 587.6 597.415 588.8C603.419 590 608.322 591 611.624 591.8C615.127 592.4 616.928 592.9 616.928 592.9Z" fill="#7095A9"/>
<path opacity="0.33" d="M642.746 604.3C642.746 604.3 637.142 603.6 628.236 602.4C623.733 601.8 618.429 601.2 612.425 600.6C606.521 600 599.916 599.3 593.112 598.7C586.207 598.1 579.702 597.6 573.798 597.2C567.794 596.8 562.49 596.5 557.987 596.3C548.981 595.9 543.277 595.7 543.277 595.7C543.277 595.7 544.678 595.6 547.18 595.3C549.682 595 553.384 594.8 557.887 594.5C562.39 594.3 567.794 594.1 573.898 594.2C579.902 594.3 586.507 594.5 593.412 595.1C600.317 595.7 606.921 596.6 612.825 597.5C618.729 598.5 624.033 599.5 628.536 600.6C632.939 601.6 636.542 602.5 638.943 603.2C641.445 603.9 642.746 604.3 642.746 604.3Z" fill="#7095A9"/>
<path d="M128.813 339.436C128.213 339.636 127.512 339.836 126.912 340.036C123.009 341.136 119.006 341.536 115.104 341.236C102.195 340.236 90.4867 331.836 85.9836 318.836C81.7806 306.836 84.7827 294.036 92.6882 285.236L87.2845 269.836L86.3838 270.136C82.5812 271.436 78.3783 269.436 76.9773 265.636L76.477 264.136C75.1761 260.536 76.9773 256.536 80.3797 254.936C80.5798 254.836 80.7799 254.736 80.9801 254.736L88.8856 251.936L113.202 243.436C117.005 242.036 121.208 244.136 122.609 247.936L123.109 249.436C124.41 253.236 122.409 257.436 118.606 258.836L117.706 259.136L123.109 274.536C134.817 276.436 145.225 284.536 149.428 296.536C155.532 314.036 146.325 333.236 128.813 339.436Z" fill="white"/>
<path d="M141.618 319.259C147.974 306.013 142.38 290.126 129.124 283.775C115.868 277.424 99.9698 283.014 93.6146 296.261C87.2594 309.508 92.8534 325.395 106.109 331.746C119.365 338.096 135.263 332.506 141.618 319.259Z" fill="#384597"/>
<path d="M116.488 270.833L95.4379 278.234L100.187 291.723L121.238 284.322L116.488 270.833Z" fill="#384597"/>
<path d="M121.108 293.536C121.708 295.236 120.808 297.136 119.107 297.736C117.405 298.336 115.504 297.436 114.904 295.736C114.303 294.036 115.204 292.136 116.905 291.536C118.606 290.936 120.508 291.836 121.108 293.536Z" fill="white"/>
<path d="M119.006 312.936C120.307 316.636 118.406 320.736 114.603 322.036C110.901 323.336 106.798 321.436 105.497 317.636C104.196 313.936 106.098 309.836 109.9 308.536C113.603 307.236 117.706 309.136 119.006 312.936Z" fill="white"/>
<path d="M128.813 339.436C128.213 339.636 127.512 339.836 126.912 340.036C123.009 341.136 119.006 341.536 115.104 341.236C102.195 340.236 90.4867 331.836 85.9836 318.836C81.7806 306.836 84.7827 294.036 92.6882 285.236L87.2845 269.836L86.3838 270.136C82.5812 271.436 78.3783 269.436 76.9773 265.636L76.477 264.136C75.1761 260.536 76.9773 256.536 80.3797 254.936C80.5798 254.836 80.7799 254.736 80.9801 254.736L88.8856 251.936L113.202 243.436C117.005 242.036 121.208 244.136 122.609 247.936L123.109 249.436C124.41 253.236 122.409 257.436 118.606 258.836L117.706 259.136L123.109 274.536C134.817 276.436 145.225 284.536 149.428 296.536C155.532 314.036 146.325 333.236 128.813 339.436Z" stroke="#DFE0E1" stroke-miterlimit="10"/>
<path opacity="0.14" d="M126.912 340.036C123.009 341.136 119.007 341.536 115.104 341.236C107.098 338.136 100.093 332.536 95.4902 325.236C87.985 313.336 88.7855 297.536 95.3901 285.136C93.1886 279.136 91.3873 273.536 89.0857 267.536C85.8835 266.436 83.1816 264.036 81.6806 260.936C80.78 259.136 80.2796 257.136 80.3797 255.136C80.5798 255.036 80.78 254.936 80.9801 254.936L88.8856 252.136C89.2859 254.336 90.2866 256.536 91.7876 258.236C94.4895 261.436 99.6931 264.936 103.896 264.536C104.596 267.836 105.497 271.136 106.698 274.336C107.599 276.936 108.699 279.536 110.1 281.936C110.1 282.036 110 282.236 110 282.336C109.5 284.436 109.2 286.636 108.899 288.836C108.199 295.436 108.599 302.136 110.1 308.636C111.101 313.336 112.702 317.836 114.704 322.236C116.705 326.436 119.107 330.436 121.909 334.236C123.41 336.136 125.111 338.136 126.912 340.036Z" fill="#173E6D"/>
<path opacity="0.46" d="M139.321 318.536C142.823 312.536 143.323 304.736 140.621 298.336C137.92 291.936 132.015 286.936 125.211 285.236C134.417 293.136 139.921 306.336 139.321 318.536Z" fill="white"/>
<path d="M181.441 240.38C182.838 234.468 179.175 228.543 173.258 227.147C167.342 225.751 161.413 229.412 160.016 235.325C158.619 241.237 162.283 247.162 168.199 248.558C174.116 249.954 180.044 246.293 181.441 240.38Z" fill="#E1FFFE"/>
<path d="M141.344 380.292C143.302 374.541 140.223 368.292 134.468 366.336C128.713 364.38 122.46 367.457 120.503 373.208C118.545 378.959 121.624 385.207 127.379 387.164C133.134 389.12 139.387 386.043 141.344 380.292Z" fill="#E1FFFE"/>
<path d="M786.57 665.106C787.882 659.174 784.132 653.302 778.196 651.992C772.259 650.681 766.384 654.428 765.072 660.361C763.761 666.293 767.511 672.164 773.447 673.475C779.384 674.785 785.259 671.038 786.57 665.106Z" fill="#E1FFFE"/>
<path d="M694.977 263.005C699.276 258.709 699.276 251.745 694.977 247.449C690.679 243.153 683.709 243.153 679.41 247.449C675.112 251.745 675.112 258.709 679.41 263.005C683.709 267.301 690.678 267.301 694.977 263.005Z" fill="#E1FFFE"/>
<path d="M101.73 656.946C106.029 652.65 106.029 645.685 101.73 641.389C97.4316 637.094 90.462 637.094 86.1633 641.389C81.8646 645.685 81.8646 652.65 86.1633 656.946C90.462 661.241 97.4316 661.241 101.73 656.946Z" fill="#E1FFFE"/>
</svg>
