<svg width="474" height="392" viewBox="0 0 474 392" fill="none" xmlns="http://www.w3.org/2000/svg">
<g clip-path="url(#clip0_1133_14106)">
<path d="M198.547 369.868C272.796 369.868 332.987 309.68 332.987 235.434C332.987 161.188 272.796 101 198.547 101C124.298 101 64.1077 161.188 64.1077 235.434C64.1077 309.68 124.298 369.868 198.547 369.868Z" stroke="#C4EBFE" stroke-miterlimit="10"/>
<path d="M471.454 138.634C479.926 85.3435 443.592 35.2754 390.299 26.8037C337.006 18.3321 286.936 54.6649 278.464 107.955C269.992 161.246 306.326 211.314 359.619 219.786C412.912 228.258 462.982 191.925 471.454 138.634Z" fill="#E7F7FE"/>
<path d="M449.666 237.201L437.153 249.714L449.666 262.227L462.18 249.714L449.666 237.201Z" fill="#E7F7FE"/>
<path d="M124.547 294.774L117.291 302.03L124.547 309.286L131.803 302.03L124.547 294.774Z" fill="#E7F7FE"/>
</g>
<g clip-path="url(#clip1_1133_14106)">
<path opacity="0.54" fill-rule="evenodd" clip-rule="evenodd" d="M347.819 123.989C348.685 119.549 353.125 115.867 357.781 115.867H439.213C443.869 115.867 447.01 119.549 446.143 123.989L444.844 130.811H346.519L347.819 123.989Z" fill="#3AB2F8"/>
<path fill-rule="evenodd" clip-rule="evenodd" d="M444.952 130.811L435.206 183.872C434.34 188.312 429.9 191.993 425.244 191.993H343.487C338.831 191.993 335.69 188.312 336.557 183.872L346.519 130.811H444.952Z" fill="white"/>
<path opacity="0.67" d="M436.723 123.556C436.506 124.964 437.372 126.046 438.78 126.046C440.188 126.046 441.487 124.964 441.704 123.556C441.92 122.148 441.054 121.065 439.646 121.065C438.239 121.065 436.939 122.148 436.723 123.556Z" fill="white"/>
<path opacity="0.67" d="M428.926 123.556C428.709 124.964 429.576 126.046 430.983 126.046C432.391 126.046 433.691 124.964 433.907 123.556C434.124 122.148 433.257 121.065 431.85 121.065C430.442 121.065 429.142 122.148 428.926 123.556Z" fill="white"/>
<path opacity="0.67" d="M421.021 123.556C420.804 124.964 421.671 126.046 423.078 126.046C424.486 126.046 425.785 124.964 426.002 123.556C426.219 122.148 425.352 121.065 423.945 121.065C422.645 121.065 421.346 122.148 421.021 123.556Z" fill="white"/>
<path d="M211.268 268.877C209.969 275.916 215.383 281.655 223.505 281.655H375.432C383.553 281.655 391.134 275.916 392.433 268.877L410.842 168.928H230.435L211.268 268.877Z" fill="#F4F4F4"/>
<g opacity="0.72">
<path d="M252.093 225.996L256.641 202.281H278.406L273.858 225.996H252.093Z" fill="white"/>
<path d="M344.895 225.887L349.335 202.281H372.075L367.635 225.887H344.895Z" fill="white"/>
<path d="M289.452 272.126L293.35 251.118H314.574L310.676 272.126H289.452Z" fill="white"/>
<path d="M224.155 251.118L221.339 266.17C220.689 269.527 222.855 272.126 226.212 272.126H242.022L246.029 251.118H224.155Z" fill="#C9FFC0"/>
<path d="M255.233 202.281H233.467L228.919 225.996H250.685L255.233 202.281Z" fill="#F5AABD"/>
<path d="M259.998 177.266H244.296C240.939 177.266 237.799 179.974 237.149 183.222L233.792 200.873H255.558L259.998 177.266Z" fill="#F5AABD"/>
<path d="M364.711 249.602H386.586L386.261 251.118H364.387L363.737 254.584L360.488 272.126H376.407C379.763 272.126 382.904 269.419 383.553 266.17L390.7 227.512H368.826L364.711 249.602Z" fill="#F5AABD"/>
<path d="M373.483 202.281L369.043 225.996H390.917L390.809 226.97L395.573 201.09L395.357 202.281H373.483Z" fill="white"/>
<path d="M296.491 227.512H275.05L270.826 249.602H292.376L296.491 227.512Z" fill="#F5AABD"/>
<path d="M319.123 227.512H297.898L293.783 249.602H315.008L319.123 227.512Z" fill="white"/>
<path d="M298.223 225.996H319.339L323.779 202.281H302.663L298.223 225.996Z" fill="white"/>
<path d="M372.075 202.281H349.335L344.895 225.996H367.635L372.075 202.281Z" fill="#F5AABD"/>
<path d="M367.419 227.512H344.57L340.455 249.602H363.304L367.419 227.512Z" fill="white"/>
<path d="M343.162 227.512H320.53L316.415 249.602H339.047L343.162 227.512Z" fill="#F5AABD"/>
<path d="M347.927 202.281H325.187L320.747 225.996H343.487L347.927 202.281Z" fill="white"/>
<path d="M275.266 225.996H296.815L301.255 202.281H279.814L275.266 225.996Z" fill="white"/>
<path d="M372.292 200.873L376.731 177.266V177.05H353.991V177.266L349.551 200.873H372.292Z" fill="white"/>
<path d="M247.653 249.602H269.419L273.642 227.512H251.876L247.653 249.602Z" fill="#F5AABD"/>
<path d="M252.093 225.996H273.858L278.406 202.281H256.641L252.093 225.996Z" fill="white"/>
<path d="M293.458 251.118L289.56 272.126H310.784L314.683 251.118H293.458Z" fill="white"/>
<path d="M316.09 251.118L312.192 272.126H334.932L338.831 251.118H316.09Z" fill="white"/>
<path d="M270.61 251.118L266.603 272.126H288.152L292.051 251.118H270.61Z" fill="#F5AABD"/>
<path d="M348.144 200.873L352.583 177.266V177.05H329.951V177.266L325.511 200.873H348.144Z" fill="#F5AABD"/>
<path d="M247.328 251.118L243.321 272.126H265.195L269.094 251.118H247.328Z" fill="white"/>
<path d="M340.239 251.118L336.34 272.126H359.081L362.979 251.118H340.239Z" fill="white"/>
<path d="M301.472 200.873L306.02 177.266V177.05H284.579V177.266L280.031 200.873H301.472Z" fill="white"/>
<path d="M324.104 200.873L328.543 177.266V177.05H307.427V177.266L302.988 200.873H324.104Z" fill="white"/>
<path d="M278.623 200.873L283.171 177.266V177.05H261.405V177.266L256.966 200.873H278.623Z" fill="#F5AABD"/>
<path d="M393.949 177.266H378.139L373.808 200.873H395.682L398.93 183.222C399.472 179.974 397.306 177.266 393.949 177.266Z" fill="#F5AABD"/>
<path d="M250.468 227.512H228.703L224.479 249.602H246.245L250.468 227.512Z" fill="white"/>
<path d="M319.447 225.779H298.223L302.663 202.281H323.779L319.447 225.779Z" fill="#F5AABD"/>
</g>
<path d="M400.988 143.264H249.927C241.914 143.264 234.225 149.003 232.926 156.042L230.435 168.928H410.842L413.224 156.042C414.524 149.003 409.001 143.264 400.988 143.264Z" fill="#3AB2F8"/>
<path d="M358.647 151.061C357.998 154.418 360.272 157.125 363.52 157.125C366.877 157.125 370.018 154.418 370.667 151.061C371.317 147.704 369.043 144.997 365.794 144.997C362.546 144.888 359.297 147.704 358.647 151.061Z" fill="#2FA7DB"/>
<path d="M364.278 153.66C365.903 153.66 367.527 152.252 367.852 150.628L370.017 139.149C370.342 137.525 369.259 136.117 367.527 136.117C365.903 136.117 364.278 137.525 363.953 139.149L361.788 150.628C361.463 152.36 362.546 153.66 364.278 153.66Z" fill="white"/>
<path d="M272.884 151.061C272.234 154.418 274.4 157.125 277.757 157.125C281.114 157.125 284.362 154.418 284.904 151.061C285.553 147.704 283.388 144.997 280.031 144.997C276.782 144.888 273.533 147.704 272.884 151.061Z" fill="#2FA7DB"/>
<path d="M278.406 153.66C280.031 153.66 281.655 152.252 281.98 150.628L284.146 139.149C284.47 137.525 283.388 136.117 281.763 136.117C280.139 136.117 278.515 137.525 278.19 139.149L276.024 150.628C275.699 152.36 276.782 153.66 278.406 153.66Z" fill="white"/>
<path d="M244.621 151.061C243.971 154.418 246.137 157.125 249.494 157.125C252.851 157.125 256.099 154.418 256.749 151.061C257.399 147.704 255.233 144.997 251.876 144.997C248.519 144.888 245.271 147.704 244.621 151.061Z" fill="#2FA7DB"/>
<path d="M250.143 153.66C251.768 153.66 253.392 152.252 253.717 150.628L255.883 139.149C256.208 137.525 255.125 136.117 253.5 136.117C251.876 136.117 250.252 137.525 249.927 139.149L247.761 150.628C247.436 152.36 248.519 153.66 250.143 153.66Z" fill="white"/>
<path d="M387.127 151.061C386.477 154.418 388.751 157.125 392 157.125C395.357 157.125 398.497 154.418 399.147 151.061C399.796 147.704 397.522 144.997 394.274 144.997C390.917 144.888 387.777 147.704 387.127 151.061Z" fill="#2FA7DB"/>
<path d="M392.649 153.66C394.274 153.66 395.898 152.252 396.223 150.628L398.389 139.149C398.714 137.525 397.631 136.117 395.898 136.117C394.274 136.117 392.649 137.525 392.325 139.149L390.159 150.628C389.942 152.36 391.025 153.66 392.649 153.66Z" fill="white"/>
<path d="M330.06 151.061C329.41 154.418 331.576 157.125 334.932 157.125C338.289 157.125 341.538 154.418 342.079 151.061C342.729 147.704 340.563 144.997 337.206 144.997C333.85 144.888 330.601 147.704 330.06 151.061Z" fill="#2FA7DB"/>
<path d="M335.582 153.66C337.207 153.66 338.831 152.252 339.156 150.628L341.321 139.149C341.646 137.525 340.563 136.117 338.831 136.117C337.207 136.117 335.582 137.525 335.257 139.149L333.092 150.628C332.875 152.36 333.958 153.66 335.582 153.66Z" fill="white"/>
<path d="M301.363 151.061C300.714 154.418 302.879 157.125 306.236 157.125C309.593 157.125 312.842 154.418 313.383 151.061C314.033 147.704 311.867 144.997 308.51 144.997C305.262 144.888 302.013 147.704 301.363 151.061Z" fill="#2FA7DB"/>
<path d="M306.886 153.66C308.51 153.66 310.135 152.252 310.459 150.628L312.625 139.149C312.95 137.525 311.867 136.117 310.243 136.117C308.619 136.117 306.994 137.525 306.669 139.149L304.504 150.628C304.179 152.36 305.262 153.66 306.886 153.66Z" fill="white"/>
<path opacity="0.54" d="M186.254 116.95H230.543C233.792 116.95 235.85 119.549 235.2 122.798L233.576 131.461C232.926 134.709 229.894 137.308 226.645 137.308H226.212L230.219 144.888L218.74 137.308H182.356C179.107 137.308 177.05 134.709 177.699 131.461L179.324 122.798C179.973 119.549 183.114 116.95 186.254 116.95Z" fill="#3AB2F8"/>
<path opacity="0.67" d="M187.77 134.168C183.872 134.168 181.273 131.027 182.031 127.021C182.897 123.231 186.687 119.982 190.585 119.982C194.484 119.982 197.083 123.123 196.325 127.129C195.458 131.027 191.668 134.168 187.77 134.168ZM190.261 121.606C187.229 121.606 184.305 124.097 183.655 127.129C183.114 130.161 185.063 132.652 188.095 132.652C191.127 132.652 194.051 130.161 194.7 127.129C195.242 124.097 193.293 121.606 190.261 121.606Z" fill="white"/>
<path opacity="0.67" d="M229.677 124.205H198.49C198.057 124.205 197.732 123.881 197.841 123.447C197.949 123.014 198.382 122.689 198.815 122.689H230.002C230.435 122.689 230.652 123.014 230.652 123.447C230.543 123.881 230.11 124.205 229.677 124.205Z" fill="white"/>
<path opacity="0.67" d="M228.919 127.887H197.841C197.408 127.887 197.083 127.562 197.191 127.129C197.299 126.696 197.732 126.371 198.166 126.371H229.352C229.786 126.371 230.11 126.696 230.002 127.129C229.786 127.562 229.352 127.887 228.919 127.887Z" fill="white"/>
<path opacity="0.67" d="M228.269 131.569H197.083C196.65 131.569 196.325 131.244 196.433 130.811C196.541 130.378 196.974 130.053 197.408 130.053H228.594C229.027 130.053 229.352 130.378 229.244 130.811C229.136 131.244 228.703 131.569 228.269 131.569Z" fill="white"/>
<path opacity="0.54" d="M377.489 261.081L385.503 267.578L385.286 268.552C384.745 271.801 386.802 274.292 390.051 274.292H435.531C438.78 274.292 441.812 271.693 442.353 268.552L443.978 259.673C444.519 256.424 442.462 253.934 439.213 253.934H393.732C390.592 253.934 387.452 256.532 386.91 259.673L386.694 261.081H377.489Z" fill="#3AB2F8"/>
<path opacity="0.67" d="M395.898 271.259C392 271.259 389.401 268.119 390.159 264.113C390.917 260.214 394.707 256.966 398.605 256.966C402.504 256.966 405.103 260.106 404.345 264.113C403.587 268.011 399.797 271.259 395.898 271.259ZM398.389 258.59C395.357 258.59 392.433 261.08 391.783 264.113C391.242 267.145 393.191 269.635 396.223 269.635C399.255 269.635 402.179 267.145 402.829 264.113C403.37 261.08 401.421 258.59 398.389 258.59Z" fill="white"/>
<path opacity="0.67" d="M437.805 261.189H406.619C406.185 261.189 405.861 260.864 405.969 260.431C406.077 259.998 406.51 259.673 406.943 259.673H438.13C438.563 259.673 438.888 259.998 438.78 260.431C438.563 260.864 438.238 261.189 437.805 261.189Z" fill="white"/>
<path opacity="0.67" d="M437.047 264.979H405.861C405.427 264.979 405.103 264.654 405.211 264.221C405.319 263.788 405.752 263.463 406.185 263.463H437.372C437.805 263.463 438.13 263.788 438.022 264.221C437.914 264.546 437.48 264.979 437.047 264.979Z" fill="white"/>
<path opacity="0.67" d="M436.398 268.552H405.211C404.778 268.552 404.453 268.228 404.561 267.794C404.669 267.361 405.103 267.036 405.536 267.036H436.722C437.156 267.036 437.48 267.361 437.372 267.794C437.156 268.228 436.831 268.552 436.398 268.552Z" fill="white"/>
<g opacity="0.54">
<path d="M324.862 219.715L326.594 210.727C326.811 209.319 328.219 208.236 329.626 208.236H357.781C359.189 208.236 360.055 209.319 359.839 210.727L358.106 219.715C357.889 221.123 356.482 222.205 355.074 222.205H326.919C325.512 222.314 324.537 221.123 324.862 219.715ZM329.193 209.752C328.652 209.752 328.11 210.185 328.002 210.727L326.27 219.715C326.161 220.256 326.486 220.689 327.028 220.689H355.182C355.724 220.689 356.265 220.256 356.265 219.715L357.998 210.727C358.106 210.185 357.781 209.752 357.24 209.752H329.193Z" fill="#3AB2F8"/>
<path d="M335.149 213.975H351.284C351.717 213.975 352.15 213.651 352.259 213.217C352.367 212.784 352.042 212.459 351.609 212.459H335.474C335.041 212.459 334.608 212.784 334.499 213.217C334.391 213.651 334.716 213.975 335.149 213.975Z" fill="#3AB2F8"/>
<path d="M334.391 217.982H342.404C342.837 217.982 343.271 217.657 343.379 217.224C343.487 216.791 343.162 216.466 342.729 216.466H334.716C334.283 216.466 333.85 216.791 333.741 217.224C333.741 217.657 333.958 217.982 334.391 217.982Z" fill="#3AB2F8"/>
</g>
<g opacity="0.54">
<path d="M211.593 193.509L213.326 184.521C213.542 183.114 214.95 182.031 216.358 182.031H244.513C245.92 182.031 246.787 183.114 246.57 184.521L244.729 193.509C244.513 194.917 243.105 196 241.697 196H213.542C212.243 196 211.268 194.809 211.593 193.509ZM215.925 183.438C215.383 183.438 214.842 183.872 214.734 184.413L213.001 193.401C212.893 193.942 213.218 194.376 213.759 194.376H241.914C242.455 194.376 242.997 193.942 242.997 193.401L244.729 184.413C244.837 183.872 244.513 183.438 243.971 183.438H215.925Z" fill="#3AB2F8"/>
<path d="M221.881 187.662H238.015C238.449 187.662 238.882 187.337 238.99 186.904C239.098 186.471 238.773 186.146 238.34 186.146H222.205C221.772 186.146 221.339 186.471 221.231 186.904C221.123 187.337 221.447 187.662 221.881 187.662Z" fill="#3AB2F8"/>
<path d="M221.122 191.668H229.136C229.569 191.668 230.002 191.344 230.11 190.91C230.219 190.477 229.894 190.152 229.461 190.152H221.447C221.014 190.152 220.581 190.477 220.473 190.91C220.364 191.344 220.689 191.668 221.122 191.668Z" fill="#3AB2F8"/>
</g>
<g opacity="0.54">
<path d="M389.726 193.509L391.35 184.521C391.567 183.114 392.974 182.031 394.382 182.031H422.429C423.836 182.031 424.703 183.114 424.486 184.521L422.862 193.509C422.645 194.917 421.237 196 419.83 196H391.783C390.376 196.108 389.509 194.917 389.726 193.509ZM394.057 183.547C393.516 183.547 392.974 183.98 392.974 184.521L391.35 193.509C391.242 194.051 391.567 194.484 392.108 194.484H420.155C420.696 194.484 421.237 194.051 421.237 193.509L422.862 184.521C422.97 183.98 422.645 183.547 422.104 183.547H394.057Z" fill="#3AB2F8"/>
<path d="M400.013 187.77H416.04C416.473 187.77 416.906 187.445 417.014 187.012C417.123 186.579 416.798 186.254 416.365 186.254H400.338C399.905 186.254 399.472 186.579 399.363 187.012C399.363 187.445 399.58 187.77 400.013 187.77Z" fill="#3AB2F8"/>
<path d="M399.255 191.777H407.268C407.701 191.777 408.135 191.452 408.243 191.019C408.351 190.585 408.026 190.26 407.593 190.26H399.58C399.147 190.26 398.714 190.585 398.605 191.019C398.605 191.452 398.822 191.777 399.255 191.777Z" fill="#3AB2F8"/>
</g>
</g>
<g clip-path="url(#clip2_1133_14106)">
<path d="M208.648 305.089C216.798 307.178 228 309.045 224.421 316L204.109 315.984L208.648 305.089Z" fill="#E28B6D"/>
<path d="M119.652 254.472C114.283 251.553 112.813 244.327 116.728 239.637C117.111 239.19 117.527 238.728 117.99 238.265C123.983 232.299 120.244 226.349 119.413 212.63C118.582 198.927 133.875 195.194 133.907 195.178C134.626 195.003 136.016 192.945 136.608 192.435C143.511 186.469 153.403 186.915 160.962 191.462C164.558 193.631 168.185 196.949 170.135 200.778C173.219 206.839 173.778 214.831 178.988 219.553C186.403 226.285 194.633 231.996 194.297 242.843C194.185 246.704 193.211 250.772 190.861 253.866C188.816 256.562 185.684 258.365 182.871 260.104C178.285 262.943 173.443 265.432 168.329 267.123C163.375 268.75 158.357 270.217 153.339 271.605C152.86 271.733 152.396 271.86 151.917 272.004L119.652 254.472Z" fill="#313131"/>
<path d="M154.618 248.554C172.58 242.397 182.328 262.464 195.735 301.611L208.632 305.089L207.13 314.405L202.415 315.378L163.966 315.537L154.618 248.554Z" fill="#7BD2EA"/>
<path d="M129.321 245.635L169.48 255.669L186.355 306.126L129.992 307.848L126.268 270.536L129.321 245.635Z" fill="#7BD2EA"/>
<path opacity="0.3" d="M130.743 267.33C140.603 277.252 138.429 291.769 146.851 293.22C152.428 294.177 168.281 296.442 175.856 299.585C177.39 300.223 181.609 303.35 180.954 306.141C180.538 307.928 174.897 306.492 174.897 306.492L132.756 302.265L123.839 281.655L130.743 267.33Z" fill="#2490BE"/>
<path d="M165.405 303.669C165.692 303.222 171.733 302.026 172.42 302.122C174.673 302.425 175.888 304.179 176.431 305.535L167.498 310.241L165.405 303.669Z" fill="#3EA1BD"/>
<path d="M172.084 267.282L173.123 269.643C173.459 270.425 173.778 271.222 174.114 272.02C174.753 273.615 175.36 275.226 175.936 276.837C177.102 280.076 178.141 283.346 179.1 286.648C180.059 289.95 180.906 293.284 181.673 296.634C182.04 298.309 182.392 300 182.711 301.691C183.015 303.382 183.287 305.089 183.51 306.779L183.287 306.811C182.999 305.12 182.679 303.445 182.328 301.771C181.976 300.096 181.593 298.421 181.193 296.762C180.394 293.428 179.531 290.109 178.572 286.823C177.63 283.521 176.591 280.267 175.488 277.013C174.945 275.386 174.354 273.775 173.762 272.179C173.459 271.382 173.171 270.568 172.851 269.771L171.893 267.378L172.084 267.282Z" fill="#3EA1BD"/>
<path d="M204.189 312.187C204.189 312.187 202.495 314.181 197.174 312.235C194.665 312.522 189.983 312.299 181.097 310.863C181.097 310.863 184.326 313.113 191.629 313.495C191.629 313.495 191.325 315.649 187.474 315.537C182.839 315.426 182.312 315.138 178.093 315.314C177.23 315.346 175.36 315.314 173.315 315.25C169.767 315.138 165.74 314.947 165.74 314.947L162.224 308.678L169.24 305.328C171.397 304.482 172.468 304.195 173.523 304.052C178.061 303.414 180.922 302.903 184.166 303.462C187.745 304.068 198.756 307.721 204.189 312.187Z" fill="#F9B384"/>
<path d="M173.491 315.154L173.299 315.266C169.751 315.154 165.724 314.963 165.724 314.963L162.208 308.694L169.224 305.344C171.381 304.498 172.452 304.211 173.507 304.068C170.918 305.089 168.808 307.848 173.491 315.154Z" fill="#E28B6D"/>
<path d="M145.876 248.49C136.752 246.624 114.507 245.077 108.29 256.562C103.176 266.022 115.993 297.719 121.554 308.869C123.839 313.463 130.487 315.729 133.06 315.745L169.735 315.537C167.274 314.963 164.11 301.755 172.404 302.122L142.025 297.894C140.843 297.735 139.788 297.065 139.133 296.076C138.701 295.406 138.19 294.576 137.918 293.619L129.305 262.098L145.876 248.49Z" fill="#7BD2EA"/>
<path d="M184.15 303.334C185.987 303.605 187.761 304.116 189.519 304.658C191.277 305.216 193.003 305.854 194.713 306.572C196.423 307.274 198.085 308.072 199.699 308.965C201.313 309.874 202.879 310.879 204.253 312.108L204.109 312.267C203.374 311.725 202.623 311.214 201.84 310.752C201.057 310.273 200.258 309.827 199.459 309.412C197.845 308.566 196.183 307.801 194.489 307.115C192.811 306.381 191.101 305.759 189.375 305.137C188.512 304.833 187.649 304.546 186.77 304.275C185.892 304.004 185.013 303.749 184.134 303.557L184.15 303.334Z" fill="#E28B6D"/>
<path d="M183.446 311.836L185.38 312.395C186.019 312.57 186.675 312.714 187.314 312.841C187.969 312.969 188.624 313.081 189.279 313.176C189.935 313.256 190.606 313.336 191.261 313.4L191.485 313.416L191.501 313.607C191.533 313.862 191.501 314.086 191.421 314.325C191.357 314.548 191.213 314.772 191.037 314.931C190.845 315.091 190.622 315.186 190.414 315.234C190.302 315.266 190.19 315.266 190.078 315.282L189.759 315.266V315.027L190.046 314.979C190.142 314.947 190.238 314.931 190.318 314.899C190.494 314.835 190.638 314.74 190.75 314.612C190.861 314.484 190.941 314.341 190.973 314.181C191.005 314.022 191.005 313.83 190.989 313.671L191.229 313.878C189.871 313.846 188.512 313.687 187.186 313.384C186.515 313.224 185.876 313.033 185.236 312.81C184.597 312.586 183.974 312.315 183.367 312.044L183.446 311.836Z" fill="#313131"/>
<path d="M181.801 307.194C183.351 307.386 184.917 307.545 186.483 307.705C188.049 307.88 189.599 308.024 191.165 308.279C192.715 308.534 194.265 308.805 195.799 309.093C197.35 309.38 198.884 309.651 200.434 309.97L200.801 310.05L200.642 310.385C200.546 310.608 200.45 310.943 200.242 311.214C200.162 311.358 200.018 311.47 199.906 311.597C199.779 311.693 199.635 311.804 199.507 311.884C198.948 312.219 198.34 312.331 197.749 312.443C196.551 312.634 195.368 312.634 194.185 312.586C193.594 312.57 193.003 312.538 192.428 312.49C191.836 312.443 191.261 312.411 190.67 312.331C189.503 312.203 188.337 312.044 187.186 311.868L187.218 311.629C188.384 311.725 189.551 311.852 190.718 311.916C191.293 311.964 191.884 311.996 192.46 312.028C193.035 312.06 193.626 312.076 194.201 312.076C195.368 312.076 196.535 312.06 197.653 311.868C198.196 311.757 198.772 311.645 199.219 311.374C199.331 311.31 199.427 311.23 199.523 311.15C199.603 311.055 199.699 310.975 199.763 310.863C199.906 310.656 199.97 310.417 200.114 310.114L200.322 310.528C197.238 309.954 194.169 309.332 191.085 308.79C189.551 308.518 188.001 308.327 186.435 308.12C184.885 307.896 183.319 307.705 181.769 307.418L181.801 307.194Z" fill="#E28B6D"/>
<path d="M141.386 260.423C142.712 261.316 144.182 261.986 145.733 262.337C147.283 262.688 148.881 262.784 150.431 262.512C151.981 262.273 153.483 261.667 154.746 260.726C156.024 259.8 157.031 258.524 157.734 257.089L157.942 257.184C157.782 257.551 157.606 257.934 157.43 258.301C157.223 258.652 156.999 259.003 156.775 259.354C156.535 259.689 156.248 259.992 155.976 260.295C155.688 260.598 155.369 260.853 155.049 261.14C153.739 262.177 152.157 262.831 150.511 263.103C148.865 263.358 147.171 263.262 145.589 262.831C143.991 262.401 142.489 261.651 141.226 260.614L141.386 260.423Z" fill="#3EA1BD"/>
<path d="M130.855 267.298L132.852 274.094L134.818 280.889L136.767 287.701L137.742 291.115L138.222 292.822C138.382 293.396 138.525 293.97 138.749 294.465C139.197 295.486 140.075 296.251 141.082 296.778C142.105 297.304 143.224 297.623 144.374 297.878C145.525 298.118 146.675 298.293 147.858 298.437L151.374 298.915L158.405 299.888L165.421 300.893L165.389 301.117L158.341 300.287L151.294 299.41L147.778 298.963C146.611 298.82 145.429 298.66 144.262 298.405C143.096 298.15 141.929 297.83 140.827 297.272C139.756 296.714 138.717 295.868 138.238 294.688C138.158 294.544 138.11 294.401 138.062 294.257C138.014 294.114 137.95 293.954 137.918 293.827L137.678 292.981L137.199 291.274L136.24 287.86L134.338 281.033L132.469 274.205L130.631 267.362L130.855 267.298Z" fill="#3EA1BD"/>
<path d="M153.659 234.229L155.465 249.687C155.992 254.281 151.15 258.141 146.228 256.865C143.415 256.132 140.475 254.185 137.439 251.266C136.815 250.66 136.432 249.894 136.352 249.065L134.434 230.433L153.659 234.229Z" fill="#F9B384"/>
<path d="M153.899 236.335L154.873 244.758C150.894 245.38 145.285 243.147 139.596 235.617L153.899 236.335Z" fill="#EE8A77"/>
<path d="M163.711 223.111C163.487 225.918 163.039 228.837 162.256 231.469C160.93 235.888 158.597 239.461 154.634 240.116C142.904 242.062 134.418 230.433 134.418 230.433L133.06 214.624L140.123 202.421L155.944 201.958L163.663 211.067C163.679 211.067 164.238 216.762 163.711 223.111Z" fill="#F9B384"/>
<path d="M132.676 220.622C138.957 220.159 140.411 214.847 140.843 207.972C140.843 207.972 157.862 203.761 163.918 215.852L168.505 216.347L154.618 197.954L133.044 200.522L128.825 214.496L132.676 220.622Z" fill="#313131"/>
<path d="M136.016 218.564C135.281 217.751 134.179 217.336 133.076 217.464C128.905 217.974 128.17 223.494 129.129 225.839C130.551 229.348 134.434 230.417 134.434 230.417L137.758 226.907C138.014 223.27 137.598 220.319 136.016 218.564Z" fill="#F9B384"/>
<path opacity="0.15" d="M136.08 234.676C138.382 241.184 145.429 259.577 133.907 259.115C128.346 258.891 123.472 248.124 115.545 250.166C116.424 249.751 117.399 249.368 118.502 249.017L136.08 234.676Z" fill="#3C1C16"/>
<path d="M134.418 230.433C136.64 234.644 142.872 255.509 132.261 254.313C127.147 253.739 125.901 247.597 118.486 249.033L134.418 230.433Z" fill="#313131"/>
<path d="M134.786 222.393C134.802 221.898 134.642 221.452 134.402 221.069C134.163 220.686 133.811 220.383 133.428 220.207C133.044 220.032 132.613 220 132.213 220.144C131.814 220.287 131.446 220.606 131.094 220.973L130.839 220.814C131.046 220.319 131.382 219.809 131.941 219.521C132.085 219.458 132.213 219.378 132.373 219.362C132.533 219.33 132.677 219.298 132.836 219.298H133.076L133.3 219.346C133.46 219.378 133.603 219.426 133.731 219.49C134.291 219.745 134.722 220.207 134.962 220.734C135.217 221.26 135.265 221.898 135.058 222.425L134.786 222.393Z" fill="#3C1C16"/>
<path d="M157.191 220.032C157.223 221.101 157.862 221.962 158.597 221.93C159.332 221.898 159.891 221.005 159.859 219.936C159.827 218.867 159.188 218.006 158.453 218.038C157.718 218.07 157.159 218.963 157.191 220.032Z" fill="#3C1C16"/>
<path d="M145.589 220.447C145.621 221.515 146.26 222.377 146.995 222.345C147.73 222.313 148.289 221.42 148.257 220.351C148.226 219.282 147.586 218.421 146.851 218.453C146.116 218.468 145.541 219.362 145.589 220.447Z" fill="#3C1C16"/>
<path d="M157.047 230.975C156.535 231.613 155.928 232.203 155.129 232.602C154.33 232.985 153.339 233.033 152.508 232.794C151.661 232.554 150.926 232.092 150.287 231.581C149.632 231.071 149.073 230.48 148.561 229.842L148.801 229.587C149.456 230.05 150.079 230.528 150.75 230.943C151.406 231.358 152.077 231.741 152.764 231.948C153.467 232.155 154.17 232.139 154.857 231.916C155.545 231.661 156.184 231.214 156.823 230.736L157.047 230.975Z" fill="#3C1C16"/>
<path d="M161.122 216.714C160.61 216.363 160.115 216.012 159.636 215.804C159.14 215.597 158.661 215.485 158.181 215.533C157.686 215.581 157.191 215.757 156.679 215.98C156.152 216.203 155.64 216.506 155.065 216.778L154.905 216.618C155.225 216.06 155.64 215.549 156.184 215.15C156.711 214.752 157.366 214.449 158.117 214.385C158.853 214.321 159.62 214.576 160.163 215.007C160.722 215.438 161.106 215.98 161.346 216.586L161.122 216.714Z" fill="#3C1C16"/>
<path d="M149.488 217.128C148.929 216.73 148.385 216.427 147.81 216.251C147.235 216.076 146.659 216.012 146.084 216.076C145.509 216.139 144.933 216.299 144.358 216.538C143.783 216.777 143.208 217.081 142.584 217.384L142.425 217.224C142.792 216.618 143.288 216.092 143.879 215.661C144.486 215.246 145.205 214.975 145.972 214.895C146.739 214.815 147.538 214.991 148.194 215.374C148.849 215.757 149.376 216.315 149.664 216.985L149.488 217.128Z" fill="#3C1C16"/>
<path opacity="0.5" d="M138.238 227.88C138.318 230.225 140.299 232.06 142.648 231.98C144.997 231.9 146.835 229.922 146.755 227.577C146.675 225.232 144.694 223.398 142.345 223.477C139.996 223.557 138.158 225.535 138.238 227.88Z" fill="#FC8879"/>
<path opacity="0.5" d="M163.711 223.11C163.487 225.918 163.039 228.837 162.256 231.469C160.467 231.023 159.108 229.427 159.028 227.497C158.948 225.152 160.786 223.19 163.135 223.094C163.327 223.079 163.519 223.094 163.711 223.11Z" fill="#FC8879"/>
<path opacity="0.5" d="M152.38 219.202C152.396 218.995 152.684 218.979 152.732 219.17C153.691 222.265 156.775 224.53 156.28 225.439C155.928 226.078 154.618 226.811 153.707 227.258C153.227 227.497 152.636 227.21 152.54 226.684C152.109 224.371 152.141 221.834 152.38 219.202Z" fill="#FC8879"/>
<path d="M153.052 218.883C153.259 219.793 153.675 220.622 154.186 221.388C154.698 222.169 155.289 222.887 155.88 223.637C156.024 223.828 156.184 224.02 156.328 224.227C156.471 224.435 156.615 224.658 156.727 224.961C156.775 225.105 156.823 225.296 156.791 225.535C156.727 225.807 156.615 225.902 156.519 226.03C156.328 226.253 156.12 226.413 155.896 226.556C155.049 227.131 154.138 227.482 153.195 227.769L153.068 227.45C153.483 227.21 153.899 226.971 154.282 226.716C154.682 226.461 155.081 226.205 155.417 225.934C155.593 225.791 155.752 225.647 155.864 225.503C155.912 225.44 155.96 225.344 155.944 225.376C155.944 225.376 155.944 225.328 155.912 225.248C155.784 224.929 155.465 224.546 155.193 224.163C154.618 223.414 154.01 222.632 153.547 221.755C153.068 220.893 152.748 219.904 152.716 218.899L153.052 218.883Z" fill="#3C1C16"/>
<path d="M130.695 231.597C130.423 232.187 130.343 232.841 130.375 233.495C130.423 234.149 130.583 234.788 130.839 235.394C131.35 236.606 132.037 237.787 132.645 239.015C133.252 240.227 133.795 241.535 134.051 242.923C134.163 243.625 134.211 244.327 134.147 245.045C134.099 245.396 134.067 245.747 133.971 246.114C133.875 246.464 133.747 246.815 133.571 247.134C133.236 247.789 132.74 248.379 132.101 248.778C131.462 249.192 130.679 249.368 129.928 249.288C129.161 249.192 128.522 248.921 127.882 248.666C127.243 248.395 126.636 248.124 126.013 247.852C124.782 247.31 123.536 246.784 122.241 246.544C121.602 246.417 120.947 246.385 120.324 246.544C120.02 246.624 119.732 246.768 119.477 246.959C119.221 247.15 119.013 247.39 118.837 247.661L118.582 247.517C118.757 247.214 118.965 246.911 119.253 246.672C119.54 246.433 119.86 246.257 120.212 246.145C120.915 245.922 121.634 245.938 122.337 246.018C123.727 246.225 125.022 246.736 126.284 247.246L128.154 248.028C128.777 248.267 129.4 248.522 129.992 248.586C130.599 248.634 131.19 248.49 131.702 248.171C132.213 247.852 132.613 247.358 132.9 246.815C133.06 246.544 133.156 246.241 133.236 245.954C133.316 245.651 133.348 245.332 133.396 245.013C133.444 244.375 133.428 243.721 133.316 243.083C133.108 241.791 132.597 240.562 132.037 239.334C131.478 238.106 130.823 236.925 130.327 235.617C130.104 234.963 129.96 234.261 129.944 233.559C129.928 232.857 130.072 232.139 130.407 231.517L130.695 231.597Z" fill="#3C1C16"/>
<path d="M130.919 196.072C132.069 195.561 133.268 195.178 134.482 194.875C135.697 194.556 136.927 194.317 138.158 194.126C139.388 193.934 140.651 193.807 141.897 193.775C142.52 193.759 143.16 193.759 143.783 193.791C144.406 193.838 145.045 193.902 145.653 194.03L145.605 194.333C144.981 194.317 144.374 194.285 143.767 194.333C143.16 194.349 142.536 194.381 141.929 194.445C140.699 194.556 139.484 194.7 138.27 194.875C137.055 195.051 135.841 195.274 134.626 195.513C134.019 195.625 133.412 195.769 132.82 195.912C132.213 196.04 131.622 196.215 131.03 196.375L130.919 196.072Z" fill="#3C1C16"/>
<path d="M140.779 207.844C141.29 207.573 141.833 207.414 142.377 207.286C142.92 207.158 143.463 207.047 144.023 206.983C145.125 206.839 146.244 206.776 147.347 206.776C149.568 206.776 151.789 207.079 153.946 207.669C156.088 208.275 158.181 209.216 159.955 210.572C160.834 211.258 161.665 212.04 162.352 212.917C163.039 213.811 163.615 214.768 164.046 215.789L163.775 215.916C162.736 214.018 161.314 212.327 159.556 211.099C158.677 210.477 157.75 209.934 156.775 209.472C155.8 209.025 154.777 208.674 153.739 208.371C151.661 207.765 149.504 207.478 147.331 207.398C146.244 207.35 145.157 207.382 144.071 207.478C143 207.573 141.897 207.717 140.906 208.1L140.779 207.844Z" fill="#3C1C16"/>
</g>
<path d="M271.003 316.334H198.018L221.624 269.229H294.502L271.003 316.334Z" fill="#D7F2F4"/>
<path d="M200.833 316.334H151.779C150.046 316.334 148.639 314.926 148.639 313.193C148.639 311.461 150.046 310.053 151.779 310.053H200.725C202.457 310.053 203.865 311.461 203.865 313.193C203.973 314.818 202.566 316.334 200.833 316.334Z" fill="#D7F2F4"/>
<path d="M255.518 295.543C254.002 299.441 250.32 301.607 247.18 300.524C244.04 299.333 242.74 295.218 244.148 291.319C245.664 287.421 249.346 285.255 252.486 286.338C255.626 287.529 256.926 291.644 255.518 295.543Z" fill="white"/>
<defs>
<clipPath id="clip0_1133_14106">
<rect width="473.215" height="392" fill="white"/>
</clipPath>
<clipPath id="clip1_1133_14106">
<rect width="268.769" height="165.788" fill="white" transform="translate(177.591 115.867)"/>
</clipPath>
<clipPath id="clip2_1133_14106">
<rect width="118" height="128" fill="white" transform="translate(107.108 188)"/>
</clipPath>
</defs>
</svg>
