<svg width="24" height="24" viewBox="0 0 24 24" fill="none" xmlns="http://www.w3.org/2000/svg">
<path d="M7.06181 5.20446L7.69907 5.33253L7.06181 5.20446ZM6.90193 6V6.65C7.21155 6.65 7.47819 6.43161 7.53919 6.12807L6.90193 6ZM16.5481 6L15.9108 6.12806C15.9718 6.43161 16.2385 6.65 16.5481 6.65V6ZM16.3882 5.20447L17.0255 5.07641V5.07641L16.3882 5.20447ZM7.69907 5.33253C7.77884 4.93558 8.12752 4.65 8.53241 4.65V3.35C7.50829 3.35 6.62633 4.07235 6.42455 5.07639L7.69907 5.33253ZM7.53919 6.12807L7.69907 5.33253L6.42455 5.07639L6.26467 5.87193L7.53919 6.12807ZM5.5 6.65H6.90193V5.35H5.5V6.65ZM3.15 9C3.15 7.70213 4.20213 6.65 5.5 6.65V5.35C3.48416 5.35 1.85 6.98416 1.85 9H3.15ZM3.15 17V9H1.85V17H3.15ZM5.5 19.35C4.20213 19.35 3.15 18.2979 3.15 17H1.85C1.85 19.0158 3.48416 20.65 5.5 20.65V19.35ZM18.5 19.35H5.5V20.65H18.5V19.35ZM20.85 17C20.85 18.2979 19.7979 19.35 18.5 19.35V20.65C20.5158 20.65 22.15 19.0158 22.15 17H20.85ZM20.85 9V17H22.15V9H20.85ZM18.5 6.65C19.7979 6.65 20.85 7.70213 20.85 9H22.15C22.15 6.98416 20.5158 5.35 18.5 5.35V6.65ZM16.5481 6.65H18.5V5.35H16.5481V6.65ZM15.751 5.33253L15.9108 6.12806L17.1853 5.87194L17.0255 5.07641L15.751 5.33253ZM14.9176 4.65C15.3225 4.65 15.6712 4.93559 15.751 5.33253L17.0255 5.07641C16.8237 4.07236 15.9417 3.35 14.9176 3.35V4.65ZM8.53241 4.65H14.9176V3.35H8.53241V4.65Z" fill="#313131"/>
<circle cx="12" cy="13" r="3" stroke="#313131" stroke-width="1.3"/>
</svg>
