<svg width="24" height="24" viewBox="0 0 24 24" fill="none" xmlns="http://www.w3.org/2000/svg">
<path fill-rule="evenodd" clip-rule="evenodd" d="M6.4999 5.5C6.23474 5.5 5.98043 5.60532 5.7929 5.79279C5.60542 5.98032 5.5 6.23474 5.5 6.4999C5.5 6.76507 5.60537 7.01943 5.79284 7.20696L10.5859 12L5.79279 16.7931C5.60532 16.9806 5.5 17.2349 5.5 17.5001C5.5 17.7653 5.60542 18.0197 5.7929 18.2072C5.98043 18.3947 6.23474 18.5 6.4999 18.5C6.76507 18.5 7.01943 18.3946 7.20696 18.2072L12 13.4141L16.7931 18.2072C16.9806 18.3947 17.2349 18.5 17.5001 18.5C17.7653 18.5 18.0197 18.3946 18.2072 18.2071C18.3947 18.0196 18.5 17.7653 18.5 17.5001C18.5 17.2349 18.3946 16.9806 18.2072 16.793L13.4141 12L18.2072 7.20691C18.3947 7.01938 18.5 6.76507 18.5 6.4999C18.5 6.23474 18.3946 5.98032 18.2071 5.79279C18.0196 5.60532 17.7653 5.5 17.5001 5.5C17.2349 5.5 16.9806 5.60537 16.793 5.79284L12 10.5859L7.20691 5.79279C7.01938 5.60532 6.76507 5.5 6.4999 5.5Z" fill="#ADB5BD"/>
</svg>
