<svg width="24" height="24" viewBox="0 0 24 24" fill="none" xmlns="http://www.w3.org/2000/svg">
<path opacity="0.5" d="M3 2L3 22" stroke="white" stroke-width="1.3" stroke-linecap="round"/>
<path d="M3 3H20C20.5523 3 21 3.44772 21 4V15C21 15.5523 20.5523 16 20 16H3V3Z" fill="white"/>
<path d="M5.7 12V11.111H6.806V8.276L5.959 8.773L5.546 7.982L7.121 7.065H7.891V11.111H8.927V12H5.7ZM11.2973 12.077C10.6999 12.077 10.2426 11.8553 9.92527 11.412C9.6126 10.9687 9.45627 10.3363 9.45627 9.515C9.45627 8.69367 9.6126 8.06833 9.92527 7.639C10.2426 7.205 10.6999 6.988 11.2973 6.988C11.8946 6.988 12.3496 7.205 12.6623 7.639C12.9796 8.06833 13.1383 8.69367 13.1383 9.515C13.1383 10.3363 12.9796 10.9687 12.6623 11.412C12.3496 11.8553 11.8946 12.077 11.2973 12.077ZM11.2973 11.195C11.5679 11.195 11.7686 11.062 11.8993 10.796C12.0299 10.5253 12.0953 10.0983 12.0953 9.515C12.0953 8.93167 12.0299 8.51167 11.8993 8.255C11.7686 7.99833 11.5679 7.87 11.2973 7.87C11.0266 7.87 10.8259 7.99833 10.6953 8.255C10.5646 8.51167 10.4993 8.93167 10.4993 9.515C10.4993 10.0983 10.5646 10.5253 10.6953 10.796C10.8259 11.062 11.0266 11.195 11.2973 11.195ZM13.3245 12L15.5925 7.065H16.4675L18.7355 12H17.6435L17.1815 10.929H14.8785L14.4235 12H13.3245ZM16.0195 8.22L15.2425 10.082H16.8245L16.0335 8.22H16.0195Z" fill="#3AB2F8"/>
</svg>
