<svg width="32" height="32" viewBox="0 0 32 32" fill="none" xmlns="http://www.w3.org/2000/svg">
<circle cx="16" cy="16" r="16" fill="#E7F7FE"/>
<path d="M16 10.3501C14.2272 10.3461 12.4986 10.9031 11.0616 11.9413C9.62461 12.9795 8.55294 14.4458 8 16.1301C8.54277 17.8255 9.61009 19.3045 11.048 20.3539C12.4858 21.4034 14.2199 21.9689 16 21.9689C17.7801 21.9689 19.5142 21.4034 20.952 20.3539C22.3899 19.3045 23.4572 17.8255 24 16.1301C23.4457 14.4466 22.3737 12.9812 20.937 11.9432C19.5003 10.9052 17.7724 10.3476 16 10.3501Z" stroke="#3AB2F8" stroke-width="1.3" stroke-linejoin="round"/>
<path d="M16 18C17.1046 18 18 17.1046 18 16C18 14.8954 17.1046 14 16 14C14.8954 14 14 14.8954 14 16C14 17.1046 14.8954 18 16 18Z" stroke="#3AB2F8" stroke-width="1.3" stroke-linejoin="round"/>
</svg>
