<svg width="24" height="24" viewBox="0 0 24 24" fill="none" xmlns="http://www.w3.org/2000/svg">
<path d="M5.39999 2.09998H18.6C19.7 2.09998 20.6 2.99998 20.6 4.09998V6.29998C20.6 7.09998 20.1 8.09998 19.6 8.59998L15.3 12.4C14.7 12.9 14.3 13.9 14.3 14.7V19C14.3 19.6 13.9 20.4 13.4 20.7L12 21.6C10.7 22.4 8.89999 21.5 8.89999 19.9V14.6C8.89999 13.9 8.49999 13 8.09999 12.5L4.29999 8.49998C3.79999 7.99998 3.39999 7.09998 3.39999 6.49998V4.19998C3.39999 2.99998 4.29999 2.09998 5.39999 2.09998Z" stroke="#3AB2F8" stroke-width="1.3" stroke-miterlimit="10" stroke-linecap="round" stroke-linejoin="round"/>
</svg>
