<svg width="24" height="24" viewBox="0 0 24 24" fill="none" xmlns="http://www.w3.org/2000/svg">
<path fill-rule="evenodd" clip-rule="evenodd" d="M17.7772 19H6.22281C4.39443 19 3.35076 17.1609 4.44779 15.8721C4.93344 15.3016 5.23274 14.6249 5.31328 13.9153L5.76046 9.97519C6.0016 7.85063 7.58766 6.10719 9.73005 5.37366V5.26995C9.73005 4.01629 10.7463 3 12 3C13.2537 3 14.2699 4.01629 14.2699 5.26995V5.37366C16.4123 6.10719 17.9984 7.85063 18.2395 9.97519L18.6867 13.9153C18.7673 14.6249 19.0666 15.3016 19.5522 15.8721C20.6492 17.1609 19.6056 19 17.7772 19Z" stroke="#434345" stroke-width="1.3"/>
<path d="M9.5 21.5H14.5" stroke="#434345" stroke-width="1.3" stroke-miterlimit="10" stroke-linecap="round" stroke-linejoin="round"/>
</svg>
