<svg width="24" height="24" viewBox="0 0 24 24" fill="none" xmlns="http://www.w3.org/2000/svg">
<path d="M2.83331 12.8066V11.1933C2.83331 10.24 3.61248 9.45165 4.57498 9.45165C6.23415 9.45165 6.91248 8.27832 6.07831 6.83915C5.60165 6.01415 5.88581 4.94165 6.71998 4.46498L8.30581 3.55748C9.02998 3.12665 9.96498 3.38332 10.3958 4.10748L10.4966 4.28165C11.3216 5.72082 12.6783 5.72082 13.5125 4.28165L13.6133 4.10748C14.0441 3.38332 14.9791 3.12665 15.7033 3.55748L17.2891 4.46498C18.1233 4.94165 18.4075 6.01415 17.9308 6.83915C17.0966 8.27832 17.775 9.45165 19.4341 9.45165C20.3875 9.45165 21.1758 10.2308 21.1758 11.1933V12.8066C21.1758 13.76 20.3966 14.5483 19.4341 14.5483C17.775 14.5483 17.0966 15.7216 17.9308 17.1608C18.4075 17.995 18.1233 19.0583 17.2891 19.535L15.7033 20.4425C14.9791 20.8733 14.0441 20.6166 13.6133 19.8925L13.5125 19.7183C12.6875 18.2791 11.3308 18.2791 10.4966 19.7183L10.3958 19.8925C9.96498 20.6166 9.02998 20.8733 8.30581 20.4425L6.71998 19.535C5.88581 19.0583 5.60165 17.9858 6.07831 17.1608C6.91248 15.7216 6.23415 14.5483 4.57498 14.5483C3.61248 14.5483 2.83331 13.76 2.83331 12.8066Z" stroke="#434345" stroke-width="1.3" stroke-miterlimit="10" stroke-linecap="round" stroke-linejoin="round"/>
<path d="M12 14.75C13.5188 14.75 14.75 13.5188 14.75 12C14.75 10.4812 13.5188 9.25 12 9.25C10.4812 9.25 9.25 10.4812 9.25 12C9.25 13.5188 10.4812 14.75 12 14.75Z" stroke="#434345" stroke-width="1.3" stroke-miterlimit="10" stroke-linecap="round" stroke-linejoin="round"/>
</svg>
