<svg width="24" height="24" viewBox="0 0 24 24" fill="none" xmlns="http://www.w3.org/2000/svg">
<path d="M20.3325 7.39833C19.5533 6.53666 18.2516 6.10583 16.3633 6.10583H16.1433V6.06916C16.1433 4.52916 16.1433 2.6225 12.6966 2.6225H11.3033C7.85662 2.6225 7.85662 4.53833 7.85662 6.06916V6.115H7.63662C5.73912 6.115 4.44662 6.54583 3.66745 7.4075C2.75995 8.41583 2.78745 9.7725 2.87912 10.6983L2.88829 10.7625L2.95741 11.4883C2.97167 11.6381 3.05247 11.7734 3.17841 11.8558C3.39977 12.0004 3.75492 12.2289 3.96995 12.3483C4.09829 12.4308 4.23579 12.5042 4.37329 12.5775C5.94079 13.4392 7.66412 14.0167 9.41495 14.3008C9.49745 15.1625 9.87329 16.1708 11.8808 16.1708C13.8883 16.1708 14.2825 15.1717 14.3466 14.2825C16.2166 13.98 18.0225 13.3292 19.6541 12.3758C19.7091 12.3483 19.7458 12.3208 19.7916 12.2933C20.1501 12.0907 20.5218 11.8418 20.8617 11.5971C20.9748 11.5157 21.047 11.3896 21.0624 11.2511L21.075 11.1383L21.1208 10.7075C21.13 10.6525 21.13 10.6067 21.1391 10.5425C21.2125 9.61666 21.1941 8.35166 20.3325 7.39833ZM12.9991 13.6775C12.9991 14.6492 12.9991 14.7958 11.8716 14.7958C10.7441 14.7958 10.7441 14.6217 10.7441 13.6867V12.5317H12.9991V13.6775ZM9.16745 6.10583V6.06916C9.16745 4.51083 9.16745 3.93333 11.3033 3.93333H12.6966C14.8325 3.93333 14.8325 4.52 14.8325 6.06916V6.115H9.16745V6.10583Z" fill="white"/>
<path opacity="0.5" d="M20.0675 13.6213C20.4213 13.4534 20.8277 13.7343 20.7923 14.1243L20.47 17.6742C20.2775 19.5075 19.5259 21.3775 15.4925 21.3775H8.50752C4.47419 21.3775 3.72252 19.5075 3.53002 17.6833L3.22431 14.3205C3.18927 13.9351 3.58643 13.6546 3.93925 13.8138C4.99052 14.288 6.84697 15.0913 8.0148 15.4011C8.17897 15.4447 8.31188 15.5624 8.38493 15.7157C8.94556 16.8925 10.1484 17.5183 11.8809 17.5183C13.5962 17.5183 14.814 16.8683 15.3766 15.6885C15.4498 15.535 15.5827 15.4174 15.747 15.3736C16.9878 15.0426 18.9666 14.1435 20.0675 13.6213Z" fill="white"/>
</svg>
