<svg width="24" height="24" viewBox="0 0 24 24" fill="none" xmlns="http://www.w3.org/2000/svg">
<path d="M20.0999 6.58184C17.1029 6.28484 14.0879 6.13184 11.0819 6.13184C9.2999 6.13184 7.5179 6.22184 5.7359 6.40184L3.8999 6.58184" stroke="#FF4A4A" stroke-width="1.3" stroke-linecap="round" stroke-linejoin="round"/>
<path d="M8.8501 5.673L9.0481 4.494C9.1921 3.639 9.3001 3 10.8211 3H13.1791C14.7001 3 14.8171 3.675 14.9521 4.503L15.1501 5.673" stroke="#FF4A4A" stroke-width="1.3" stroke-linecap="round" stroke-linejoin="round"/>
<path d="M18.165 9.42578L17.58 18.4888C17.481 19.9018 17.4 20.9998 14.889 20.9998H9.11096C6.59996 20.9998 6.51896 19.9018 6.41996 18.4888L5.83496 9.42578" stroke="#FF4A4A" stroke-width="1.3" stroke-linecap="round" stroke-linejoin="round"/>
<path d="M10.4971 16.0498H13.4941" stroke="#FF4A4A" stroke-width="1.3" stroke-linecap="round" stroke-linejoin="round"/>
<path d="M9.75 12.4502H14.25" stroke="#FF4A4A" stroke-width="1.3" stroke-linecap="round" stroke-linejoin="round"/>
</svg>
