<svg width="32" height="32" viewBox="0 0 32 32" fill="none" xmlns="http://www.w3.org/2000/svg">
<circle cx="16" cy="16" r="16" fill="#FFF0F0"/>
<path d="M22.75 12.0475C22.735 12.0475 22.7125 12.0475 22.69 12.0475C18.7225 11.65 14.7625 11.5 10.84 11.8975L9.31 12.0475C8.995 12.0775 8.7175 11.8525 8.6875 11.5375C8.6575 11.2225 8.8825 10.9525 9.19 10.9225L10.72 10.7725C14.71 10.3675 18.7525 10.525 22.8025 10.9225C23.11 10.9525 23.335 11.23 23.305 11.5375C23.2825 11.83 23.035 12.0475 22.75 12.0475Z" fill="#FF5C58"/>
<path d="M13.375 11.29C13.345 11.29 13.315 11.29 13.2775 11.2825C12.9775 11.23 12.7675 10.9375 12.82 10.6375L12.985 9.655C13.105 8.935 13.27 7.9375 15.0175 7.9375H16.9825C18.7375 7.9375 18.9025 8.9725 19.015 9.6625L19.18 10.6375C19.2325 10.945 19.0225 11.2375 18.7225 11.2825C18.415 11.335 18.1225 11.125 18.0775 10.825L17.9125 9.85C17.8075 9.1975 17.785 9.07 16.99 9.07H15.025C14.23 9.07 14.215 9.175 14.1025 9.8425L13.93 10.8175C13.885 11.095 13.645 11.29 13.375 11.29Z" fill="#FF5C58"/>
<path d="M18.4075 24.0626H13.5925C10.975 24.0626 10.87 22.6151 10.7875 21.4451L10.3 13.8926C10.2775 13.5851 10.5175 13.3151 10.825 13.2926C11.14 13.2776 11.4025 13.5101 11.425 13.8176L11.9125 21.3701C11.995 22.5101 12.025 22.9376 13.5925 22.9376H18.4075C19.9825 22.9376 20.0125 22.5101 20.0875 21.3701L20.575 13.8176C20.5975 13.5101 20.8675 13.2776 21.175 13.2926C21.4825 13.3151 21.7225 13.5776 21.7 13.8926L21.2125 21.4451C21.13 22.6151 21.025 24.0626 18.4075 24.0626Z" fill="#FF5C58"/>
<path d="M17.245 19.9375H14.7475C14.44 19.9375 14.185 19.6825 14.185 19.375C14.185 19.0675 14.44 18.8125 14.7475 18.8125H17.245C17.5525 18.8125 17.8075 19.0675 17.8075 19.375C17.8075 19.6825 17.5525 19.9375 17.245 19.9375Z" fill="#FF5C58"/>
<path d="M17.875 16.9375H14.125C13.8175 16.9375 13.5625 16.6825 13.5625 16.375C13.5625 16.0675 13.8175 15.8125 14.125 15.8125H17.875C18.1825 15.8125 18.4375 16.0675 18.4375 16.375C18.4375 16.6825 18.1825 16.9375 17.875 16.9375Z" fill="#FF5C58"/>
</svg>
